<?xml version="1.0" encoding="utf-8"?>
<!-- Generator: Adobe Illustrator 22.0.1, SVG Export Plug-In . SVG Version: 6.00 Build 0)  -->
<svg version="1.1" id="Слой_1" xmlns="http://www.w3.org/2000/svg" xmlns:xlink="http://www.w3.org/1999/xlink" x="0px" y="0px"
	 viewBox="0 0 987.4 474" style="enable-background:new 0 0 987.4 474;" xml:space="preserve">
<style type="text/css">
	.st0{fill:#FCBE36;}
	.st1{fill:none;stroke:#231F20;stroke-width:6.1049;stroke-linejoin:round;}
	.st2{fill:none;stroke:#231F20;stroke-width:6.1049;stroke-linejoin:round;stroke-dasharray:10.8389,10.8389;}
	.st3{fill:none;stroke:#231F20;stroke-width:6.1049;stroke-linejoin:round;stroke-miterlimit:10;}
	.st4{fill:#595E62;}
	.st5{fill:#F1F2F2;stroke:#231F20;stroke-width:6.1049;stroke-linejoin:round;stroke-miterlimit:10;}
	.st6{fill:#FFC913;stroke:#231F20;stroke-width:6.1049;stroke-linejoin:round;stroke-miterlimit:10;}
	.st7{opacity:0.6;}
	.st8{fill:#FDB51E;}
	.st9{fill:#E6E7E8;stroke:#231F20;stroke-width:6.1049;stroke-linejoin:round;stroke-miterlimit:10;}
	.st10{fill:#A7A9AC;}
	.st11{fill:#3B9ADA;stroke:#231F20;stroke-width:6.1049;stroke-linejoin:round;stroke-miterlimit:10;}
	.st12{fill:#3B9ADA;}
	.st13{fill:#FFFFFF;stroke:#231F20;stroke-width:6.1049;stroke-linejoin:round;stroke-miterlimit:10;}
	.st14{fill:#BCBEC0;}
	.st15{fill:#939598;stroke:#231F20;stroke-width:6.1049;stroke-linejoin:round;stroke-miterlimit:10;}
	.st16{fill:#D1D3D4;stroke:#231F20;stroke-width:6.1049;stroke-linejoin:round;stroke-miterlimit:10;}
	.st17{fill:#FFFFFF;}
	.st18{fill:#E7ECED;stroke:#231F20;stroke-width:6.1049;stroke-linejoin:round;stroke-miterlimit:10;}
	.st19{fill:#AFB6BB;}
	.st20{fill:#D1D3D4;}
	.st21{fill:#F1F2F2;}
	.st22{fill:#E6E7E8;}
</style>
<circle class="st0" cx="500.9" cy="245.9" r="208.5"/>
<g>
	<g>
		<g>
			<path class="st1" d="M433.6,89.4c-0.6-1.7-1-3.4-1.4-5.1"/>
			<path class="st2" d="M430.5,73.6c-0.1-1.6-0.2-3.1-0.2-4.7c0-35.1,27.2-63.5,60.7-63.5c33.5,0,60.7,28.4,60.7,63.5
				c0,4-0.3,7.9-1,11.6"/>
			<path class="st1" d="M549.5,85.8c-0.5,1.7-1,3.4-1.6,5.1"/>
		</g>
	</g>
	<polyline class="st3" points="274.5,223.3 351.3,165.7 472.9,208.1 	"/>
	<polyline class="st3" points="721,151.3 644.2,208.9 522.5,166.5 	"/>
	<g>
		<path class="st4" d="M643.5,242.4c0-7.8-6.5-13.9-14.3-13.9h-275c-7.8,0-14.4,6.1-14.4,13.9v201.3h303.7V242.4z"/>
		<path class="st5" d="M316.8,443.7v14.1c0,7.8,7.5,14.9,16.5,14.9h316.6c9,0,16.4-7.1,16.4-14.9v-14.1H316.8z"/>
		<rect x="361.1" y="246.8" class="st6" width="261" height="174"/>
		<line class="st3" x1="474" y1="457.4" x2="509.1" y2="457.4"/>
		<g class="st7">
			<rect x="377.9" y="262.1" class="st8" width="228.9" height="47.3"/>
			<rect x="377.9" y="324.7" class="st8" width="152.6" height="39.7"/>
			<rect x="544.2" y="324.7" class="st8" width="61" height="39.7"/>
			<rect x="377.9" y="378.1" class="st8" width="227.4" height="22.9"/>
		</g>
	</g>
	<g>
		<path class="st9" d="M579.7,213.8c0-48.8-39.6-88.3-88.3-88.3c-48.8,0-88.8,39.5-88.8,88.3c0,43.2,31.7,79.1,71.4,86.8v120.2h33.6
			V300.7C548.8,293.1,579.8,257.1,579.7,213.8z"/>
		<line class="st3" x1="474" y1="300.2" x2="492.4" y2="300.2"/>
		<rect x="463.4" y="324.7" class="st10" width="56.5" height="74.8"/>
		<line class="st3" x1="472.5" y1="341.5" x2="509.1" y2="341.5"/>
		<line class="st3" x1="472.5" y1="361.3" x2="509.1" y2="361.3"/>
		<line class="st3" x1="472.5" y1="381.1" x2="509.1" y2="381.1"/>
	</g>
	<path class="st11" d="M558.7,214.5c0,36.9-29.9,66.9-66.9,66.9c-36.9,0-66.9-29.9-66.9-66.9c0-36.9,29.9-66.9,66.9-66.9
		C528.7,147.6,558.7,177.5,558.7,214.5z"/>
	<path class="st12" d="M288.1,222.9c0,7.7-6.3,14-14,14c-7.7,0-14-6.3-14-14s6.3-14,14-14C281.8,208.9,288.1,215.2,288.1,222.9z"/>
	<path class="st13" d="M364.9,165.3c0,7.7-6.3,14-14,14c-7.7,0-14-6.3-14-14c0-7.7,6.3-14,14-14
		C358.6,151.3,364.9,157.6,364.9,165.3z"/>
	<circle class="st12" cx="643.8" cy="208.5" r="14"/>
	<path class="st13" d="M734.6,150.9c0,7.7-6.3,14-14,14c-7.7,0-14-6.3-14-14c0-7.7,6.3-14,14-14
		C728.3,136.9,734.6,143.2,734.6,150.9z"/>
	<g>
		<g>
			<g>
				<path class="st10" d="M748.7,373.4c12.2,0,21.8-9.9,21.8-22c0-12.2-9.5-22-21.6-22c-0.1,0,0,0,0,0L748.7,373.4
					C748.8,373.3,748.5,373.4,748.7,373.4z"/>
			</g>
			<rect x="558" y="324.7" class="st14" width="27.5" height="54.9"/>
			<path class="st5" d="M747.2,416.1c0,1.8-1.4,3.2-3.2,3.2h-13.4c-1.8,0-3.2-1.4-3.2-3.2V289.7c0-1.8,1.4-3.2,3.2-3.2H744
				c1.8,0,3.2,1.4,3.2,3.2V416.1z"/>
			<rect x="606.8" y="401" class="st15" width="25.9" height="41.2"/>
			<rect x="544.2" y="339.9" class="st3" width="13.7" height="24.4"/>
			<g>
				<polygon class="st12" points="661.8,317.3 703,305.9 703,397.6 661.8,386.2 				"/>
				<polygon class="st5" points="727.4,299.4 727.4,331.6 727.4,371.9 727.4,404.2 703,397.6 703,305.9 				"/>
			</g>
			<path class="st16" d="M661.8,396.2c0,2.7-2.2,4.8-4.8,4.8h-66.7c-2.7,0-4.8-2.1-4.8-4.8v-88.1c0-2.7,2.2-4.8,4.8-4.8H657
				c2.7,0,4.8,2.1,4.8,4.8V396.2z"/>
			<path class="st17" d="M605.8,368.4c0,9.4,7.6,17.1,17.1,17.1c9.4,0,17.1-7.6,17.1-17.1c0-9.4-7.6-17.1-17.1-17.1
				C613.4,351.4,605.8,359,605.8,368.4z"/>
		</g>
		<line class="st3" x1="646.5" y1="320.1" x2="599.2" y2="320.1"/>
		<line class="st3" x1="646.5" y1="333.8" x2="599.2" y2="333.8"/>
	</g>
	<g>
		<g>
			<polygon class="st12" points="306.5,409.6 321.2,398 381.3,349.1 234.5,349.1 292.5,398 			"/>
			<polygon class="st18" points="234.4,348.4 234.4,443.6 292.4,397.6 			"/>
			<polygon class="st18" points="320.8,397.6 380.9,443.6 380.9,348.4 			"/>
			<polygon class="st18" points="306.5,409.6 292.5,397.7 234.5,443.7 381.3,443.7 321.2,397.7 			"/>
		</g>
	</g>
	<g>
		<polygon class="st19" points="667.9,222.4 773.2,222.4 773.2,294.1 719.8,294.1 719.8,319.4 693,294.1 667.9,294.1 		"/>
		<line class="st3" x1="761" y1="236.1" x2="739.6" y2="236.1"/>
		<line class="st3" x1="761" y1="251.4" x2="681.6" y2="251.4"/>
		<line class="st3" x1="761" y1="268.2" x2="681.6" y2="268.2"/>
		<line class="st3" x1="761" y1="280.4" x2="742.7" y2="280.4"/>
		<line class="st3" x1="732" y1="280.4" x2="709.1" y2="280.4"/>
		<line class="st3" x1="701.5" y1="280.4" x2="681.6" y2="280.4"/>
		<line class="st3" x1="730.5" y1="236.1" x2="681.6" y2="236.1"/>
	</g>
	<g>
		<polygon class="st19" points="368.7,265.1 263.4,265.1 263.4,336.9 318.4,336.9 318.4,362.6 344.1,336.9 368.7,336.9 		"/>
		<line class="st3" x1="275.6" y1="278.9" x2="297" y2="278.9"/>
		<line class="st3" x1="275.6" y1="295.7" x2="356.5" y2="295.7"/>
		<line class="st3" x1="275.6" y1="310.9" x2="356.5" y2="310.9"/>
		<line class="st3" x1="275.6" y1="324.7" x2="293.9" y2="324.7"/>
		<line class="st3" x1="304.6" y1="324.7" x2="327.5" y2="324.7"/>
		<line class="st3" x1="335.2" y1="324.7" x2="356.5" y2="324.7"/>
		<line class="st3" x1="306.2" y1="278.9" x2="356.5" y2="278.9"/>
	</g>
	<g>
		<path class="st20" d="M834.2,469.3v-9.5c1.5-0.5,3.5-1.3,5.1-2.1l6.7,6.8c0.6,0.6,1.7,0.6,2.3,0l9.7-9.7c0.6-0.6,0.6-1.7,0-2.3
			l-6.8-6.6c0.9-1.6,1.6-3.5,2.1-5h9.5c0.9,0,1.8-1,1.8-1.9v-13.7c0-0.9-0.9-1.2-1.8-1.2h-9.5c-0.5-1.5-1.3-3.7-2.1-5.4l6.8-6.9
			c0.6-0.6,0.6-1.7,0-2.4l-9.7-9.7c-0.6-0.6-1.7-0.7-2.3,0l-6.7,6.7c-1.6-0.9-3.6-1.6-5.1-2.2v-9.5c0-0.9-0.8-1.3-1.7-1.3h-13.7
			c-0.9,0-1.4,0.4-1.4,1.3v9.5c-1.5,0.6-3.7,1.3-5.3,2.1l-6.8-6.7c-0.6-0.6-1.7-0.6-2.3,0l-9.7,9.7c-0.6,0.6-0.6,1.7,0,2.3l6.8,7
			c-0.9,1.6-1.6,3.8-2.2,5.4h-9.5c-0.9,0-1.4,0.3-1.4,1.2v13.7c0,0.9,0.5,1.9,1.4,1.9h9.5c0.5,1.5,1.3,3.4,2.1,5l-6.8,6.7
			c-0.6,0.6-0.6,1.6,0,2.3l9.7,9.7c0.6,0.6,1.7,0.6,2.3,0l6.9-6.8c1.6,0.9,3.8,1.6,5.3,2.1v9.5c0,0.9,0.5,1.9,1.4,1.9h13.7
			C833.4,471.2,834.2,470.2,834.2,469.3z"/>
		<path class="st5" d="M825.3,444.7c-6.8,0-12.3-5.5-12.3-12.3c0-6.8,5.5-12.3,12.3-12.3c6.8,0,12.3,5.5,12.3,12.3
			C837.6,439.2,832.1,444.7,825.3,444.7z"/>
	</g>
	<g>
		<path class="st21" d="M188.6,223.9v-9.5c3.1-0.5,3.8-1.3,5.4-2.1l6.9,6.8c0.6,0.6,1.7,0.6,2.4,0l9.7-9.7c0.6-0.6,0.7-1.7,0-2.3
			l-6.7-6.8c0.9-1.6,1.6-3.7,2.2-5.2h9.5c0.9,0,1.1-0.6,1.1-1.5v-13.7c0-0.9-0.2-1.6-1.1-1.6h-9.5c-0.5-1.5-1.3-3.6-2.1-5.2l6.8-6.8
			c0.6-0.6,0.6-1.7,0-2.3l-9.7-9.7c-0.6-0.6-1.7-0.6-2.3,0l-7,6.7c-1.6-0.9-2.4-1.6-5.4-2.1v-9.5c0-0.9-0.2-1.6-1.1-1.6h-13.7
			c-0.9,0-2,0.7-2,1.6v9.5c-1.5,0.6-3.3,1.3-5,2.1l-6.7-6.7c-0.6-0.6-1.6-0.6-2.3,0l-9.7,9.7c-0.6,0.6-0.6,1.7,0,2.3l6.8,6.8
			c-0.9,1.6-1.6,3.7-2.1,5.2h-9.5c-0.9,0-2.1,0.7-2.1,1.6v13.7c0,0.9,1.2,1.5,2.1,1.5h9.5c0.5,1.5,1.3,3.6,2.1,5.2l-6.8,6.8
			c-0.6,0.6-0.6,1.7,0,2.3l9.7,9.7c0.6,0.6,1.7,0.6,2.3,0l6.6-6.8c1.6,0.9,3.4,1.6,5,2.1v9.5c0,0.9,1.1,1.6,2,1.6h13.7
			C188.5,225.5,188.6,224.8,188.6,223.9z"/>
		<path class="st5" d="M180.4,199.3c-6.8,0-12.3-5.5-12.3-12.3c0-6.8,5.5-12.3,12.3-12.3c6.8,0,12.3,5.5,12.3,12.3
			C192.6,193.8,187.1,199.3,180.4,199.3z"/>
	</g>
	<g>
		<g>
			<g>
				<path class="st17" d="M911,204.1c-0.1-29-23.4-52.4-52.4-52.8v52.8H911z"/>
				<path class="st12" d="M895.9,241.4c9.4-9.6,15.1-22.7,15.1-37.1c0-0.1,0-0.2,0-0.2h-52.4L895.9,241.4z"/>
				<path class="st22" d="M858.7,204.1v-52.8c0,0-0.4,0-0.6,0c-29.3,0-53,23.7-53,53c0,29.3,23.7,53,53,53
					c14.8,0,28.3-6.1,37.9-15.9L858.7,204.1z"/>
			</g>
			<line class="st3" x1="858.7" y1="165.9" x2="877" y2="165.9"/>
			<line class="st3" x1="858.7" y1="178.1" x2="889.2" y2="178.1"/>
			<line class="st3" x1="858.7" y1="191.9" x2="898.3" y2="191.9"/>
		</g>
		<path class="st3" d="M857.8,254c-29.3,0-52.8-24-52.8-53h-68.4"/>
	</g>
	<g>
		<rect x="170.3" y="433" class="st5" width="27.5" height="39.7"/>
		<rect x="127.6" y="396.4" class="st5" width="25.9" height="76.3"/>
		<rect x="83.3" y="362.8" class="st12" width="25.9" height="109.9"/>
		<line class="st5" x1="74.2" y1="472.7" x2="260.4" y2="472.7"/>
	</g>
	<line class="st5" x1="231.4" y1="150.7" x2="287.8" y2="150.7"/>
	<line class="st5" x1="234.4" y1="182.7" x2="263.4" y2="182.7"/>
	<line class="st5" x1="779.3" y1="468.1" x2="722.8" y2="468.1"/>
	<line class="st5" x1="774.7" y1="439.1" x2="748.8" y2="439.1"/>
	<g>
		<g>
			<g>
				<polyline class="st3" points="201.5,315.6 190.9,306.2 201.5,297.1 				"/>
				<line class="st3" x1="191.7" y1="306.3" x2="240.5" y2="306.3"/>
			</g>
			<line class="st3" x1="248.2" y1="306.3" x2="264.9" y2="306.3"/>
		</g>
		<g>
			<polyline class="st3" points="147.1,286.7 136.5,277.3 147.1,268.1 			"/>
			<line class="st3" x1="136.7" y1="277.3" x2="188.6" y2="277.3"/>
		</g>
		<g>
			<polyline class="st3" points="167.4,346.6 156.8,337.2 167.4,328 			"/>
			<line class="st3" x1="156.6" y1="336.9" x2="214.6" y2="336.9"/>
		</g>
		<line class="st3" x1="196.3" y1="277.3" x2="210" y2="277.3"/>
	</g>
	<g>
		<g>
			<g>
				<polyline class="st3" points="803.2,326.3 813.8,335.7 803.2,344.8 				"/>
				<line class="st3" x1="814.4" y1="335.3" x2="764" y2="335.3"/>
			</g>
			<line class="st3" x1="756.4" y1="335.3" x2="739.6" y2="335.3"/>
		</g>
		<g>
			<polyline class="st3" points="857.6,358.5 868.2,367.8 857.6,377 			"/>
			<line class="st3" x1="867.8" y1="367.4" x2="817.4" y2="367.4"/>
		</g>
		<g>
			<polyline class="st3" points="837.3,292.1 847.9,301.5 837.3,310.7 			"/>
			<line class="st3" x1="849.5" y1="301.8" x2="790" y2="301.8"/>
		</g>
		<line class="st3" x1="808.3" y1="367.4" x2="794.6" y2="367.4"/>
	</g>
	<line class="st3" x1="739.6" y1="184.2" x2="773.2" y2="184.2"/>
	<line class="st3" x1="724.3" y1="201" x2="709.1" y2="201"/>
	<line class="st3" x1="269.5" y1="472.7" x2="281.7" y2="472.7"/>
	<path class="st17" d="M505.8,156.8h-28c0,0,4.1,90.2-32.7,101.1c0,0,17.4,21.6,46.7,20.2c25.6,1.7,46.7-19.5,46.7-19.5
		C501.7,247.7,505.8,156.8,505.8,156.8z"/>
	<g>
		<g>
			<path class="st14" d="M522.9,71.7c0-0.3-31.3-48.7-31.3-48.7s-31.3,48.4-31.3,48.7v-0.4h62.6V71.7z"/>
			<rect x="460.3" y="71.3" class="st18" width="62.6" height="12.2"/>
		</g>
		<polygon class="st13" points="548.8,125.6 522.9,89.1 522.9,125.3 522.9,133.9 554.5,133.9 		"/>
		<polygon class="st13" points="434.6,125.6 429.1,133.9 460.3,133.9 460.3,125.3 460.3,89.1 		"/>
		<path class="st13" d="M460.3,83.5v49.1c0,9.4,8,16.6,17.4,16.6h-0.6v7.6h29v-7.6h-0.2c9.4,0,17-7.2,17-16.6V83.5H460.3z"/>
		<g>
			<path class="st12" d="M505.7,109.7c0,7.8-6.3,14.1-14.1,14.1c-7.8,0-14.1-6.3-14.1-14.1c0-7.8,6.3-14.1,14.1-14.1
				C499.4,95.6,505.7,101.9,505.7,109.7z"/>
		</g>
		<line class="st3" x1="483.2" y1="140" x2="500" y2="140"/>
	</g>
	<path class="st3" d="M477.8,156.1c0,0,0,46-5.8,62.9"/>
	<path class="st3" d="M505.8,171.9c0,0.8,2.2,50.8,12.9,67.4"/>
	<line class="st3" x1="469" y1="229.3" x2="463.9" y2="240.7"/>
	<path class="st3" d="M522.5,245.7c0,0,4.5,5.8,6.8,7.5"/>
	<line class="st3" x1="492.4" y1="169" x2="492.4" y2="222.4"/>
	<line class="st3" x1="492.4" y1="231.6" x2="492.4" y2="256"/>
	<line class="st3" x1="109.3" y1="373.5" x2="91" y2="373.5"/>
	<line class="st3" x1="109.3" y1="399.4" x2="91" y2="399.4"/>
	<line class="st3" x1="109.3" y1="426.9" x2="91" y2="426.9"/>
	<line class="st3" x1="109.3" y1="454.4" x2="91" y2="454.4"/>
	<g>
		<rect x="895.3" y="280.4" class="st22" width="22.9" height="22.9"/>
		<rect x="895.3" y="330.8" class="st22" width="22.9" height="22.9"/>
		<polyline class="st3" points="904.2,285.3 909.6,291 927.3,273.4 		"/>
		<polyline class="st3" points="918.2,303.3 895.3,303.3 895.3,280.4 		"/>
		<polyline class="st3" points="904.2,334.9 909.6,340.6 927.3,323 		"/>
		<polyline class="st3" points="918.2,353.7 895.3,353.7 895.3,330.8 		"/>
		<line class="st3" x1="935" y1="283.5" x2="960.9" y2="283.5"/>
		<line class="st3" x1="935" y1="298.7" x2="991.4" y2="298.7"/>
		<line class="st3" x1="935" y1="335.3" x2="960.9" y2="335.3"/>
		<line class="st3" x1="935" y1="349.1" x2="991.4" y2="349.1"/>
	</g>
	<g>
		<rect x="75.7" y="242.2" class="st22" width="22.9" height="22.9"/>
		<rect x="75.7" y="292.6" class="st22" width="22.9" height="21.4"/>
		<polyline class="st3" points="89.1,246.9 94.5,252.6 112.1,235 		"/>
		<polyline class="st3" points="101.6,265.1 78.7,265.1 78.7,242.2 		"/>
		<polyline class="st3" points="89.1,296.5 94.5,302.2 112.1,284.6 		"/>
		<polyline class="st3" points="101.6,314 78.7,314 78.7,292.6 		"/>
		<line class="st3" x1="58.9" y1="245.3" x2="33" y2="245.3"/>
		<line class="st3" x1="58.9" y1="260.6" x2="2.4" y2="260.6"/>
		<line class="st3" x1="58.9" y1="297.2" x2="33" y2="297.2"/>
		<line class="st3" x1="58.9" y1="310.9" x2="2.4" y2="310.9"/>
	</g>
	<g>
		<path class="st3" d="M726.2,104.7"/>
		<path class="st21" d="M620.8,79.6c5.3,0,10.2,1.6,14.3,4.4c2.8-3.1,6.6-5.4,10.9-6.1c-0.2-1.2-0.3-2.4-0.3-3.7
			C645.7,60.3,657,49,671,49c13.9,0,25.2,11.3,25.2,25.2c0,2.1-0.3,4.1-0.7,6c1.9-0.4,3.8-0.6,5.8-0.6c13.9,0,25.2,11.6,25.2,25.3
			h-131C595.6,91.1,606.9,79.6,620.8,79.6z"/>
		<path class="st3" d="M695.5,80.2c0,0-3.1,2.5-4.1,3"/>
		<path class="st3" d="M635.1,84c0,0,1.4,2.4,1.5,4.2"/>
	</g>
	<g>
		<path class="st3" d="M256.6,81.7"/>
		<path class="st17" d="M357.4,57.7c-5.1,0-9.8,1.5-13.7,4.2c-2.6-3-6.3-5.1-10.4-5.8c0.2-1.2,0.3-2.3,0.3-3.6
			c0-13.3-10.8-24.1-24.1-24.1c-13.3,0-24.1,10.8-24.1,24.1c0,2,0.2,3.9,0.7,5.7c-1.8-0.4-3.6-0.5-5.6-0.5
			c-13.3,0-24.1,10.5-24.1,24.3h125.3C381.5,68.3,370.7,57.7,357.4,57.7z"/>
		<path class="st3" d="M286,58.2c0,0,2.9,2.4,3.9,2.9"/>
		<path class="st3" d="M343.7,61.8c0,0-1.3,2.3-1.4,4"/>
	</g>
	<line class="st3" x1="660.2" y1="104.9" x2="745.7" y2="104.9"/>
	<line class="st3" x1="350.4" y1="80.5" x2="239" y2="80.5"/>
	<line class="st3" x1="754.9" y1="104.9" x2="768.6" y2="104.9"/>
	<line class="st3" x1="229.8" y1="80.5" x2="217.6" y2="80.5"/>
</g>
</svg>
