<?xml version="1.0" encoding="utf-8"?>
<!-- Generator: Adobe Illustrator 22.0.1, SVG Export Plug-In . SVG Version: 6.00 Build 0)  -->
<svg version="1.1" id="Слой_1" xmlns="http://www.w3.org/2000/svg" xmlns:xlink="http://www.w3.org/1999/xlink" x="0px" y="0px"
	 viewBox="0 0 993.2 421.1" style="enable-background:new 0 0 993.2 421.1;" xml:space="preserve">
<style type="text/css">
	.st0{fill:#3B9ADA;}
	.st1{fill:none;stroke:#231F20;stroke-width:5.824;stroke-linejoin:round;stroke-miterlimit:10;}
	.st2{fill:#D1D3D4;}
	.st3{fill:#F1F2F2;stroke:#231F20;stroke-width:5.824;stroke-linejoin:round;stroke-miterlimit:10;}
	.st4{fill:#FFCB31;stroke:#231F20;stroke-width:5.824;stroke-linejoin:round;stroke-miterlimit:10;}
	.st5{fill:#FFB531;}
	.st6{fill:#A7A9AC;}
	.st7{fill:#D1D3D4;stroke:#231F20;stroke-width:5.824;stroke-linejoin:round;stroke-miterlimit:10;}
	.st8{fill:#7E8488;}
	.st9{clip-path:url(#SVGID_2_);fill:#939598;}
	.st10{clip-path:url(#SVGID_2_);fill:#808285;stroke:#231F20;stroke-width:5.824;stroke-linejoin:round;stroke-miterlimit:10;}
	.st11{clip-path:url(#SVGID_2_);fill:none;stroke:#231F20;stroke-width:5.824;stroke-linejoin:round;stroke-miterlimit:10;}
	.st12{clip-path:url(#SVGID_2_);fill:#BCBEC0;stroke:#231F20;stroke-width:5.824;stroke-linejoin:round;stroke-miterlimit:10;}
	.st13{clip-path:url(#SVGID_2_);fill:#FFFFFF;}
	.st14{clip-path:url(#SVGID_2_);fill:#3B9ADA;stroke:#231F20;stroke-width:5.824;stroke-linejoin:round;stroke-miterlimit:10;}
	.st15{fill:#A7A9AC;stroke:#231F20;stroke-width:5.824;stroke-linejoin:round;stroke-miterlimit:10;}
	.st16{opacity:0.9;fill:#FFFFFF;}
	.st17{fill:#FFFFFF;stroke:#231F20;stroke-width:5.824;stroke-linejoin:round;stroke-miterlimit:10;}
	.st18{fill:#FFCB31;}
	.st19{fill:#E6E7E8;}
	.st20{fill:#FFD311;stroke:#231F20;stroke-width:5.824;stroke-linejoin:round;stroke-miterlimit:10;}
	.st21{fill:#F1F2F2;}
	.st22{fill:#BCBEC0;}
	.st23{fill:#BCBEC0;stroke:#231F20;stroke-width:5.824;stroke-linejoin:round;stroke-miterlimit:10;}
	.st24{fill:#FFFFFF;}
	.st25{fill:#E7ECED;}
</style>
<circle class="st0" cx="499.5" cy="208.5" r="208.5"/>
<g>
	<path class="st1" d="M573.1,319.8h11.6c5.8,0,5.8,6.5,11.5,6.5c5.8,0,5.8-6.9,11.5-6.9c5.8,0,5.8,6.7,11.5,6.7
		c5.8,0,5.8-6.7,11.5-6.7c5.8,0,5.8,6.7,11.5,6.7c5.8,0,5.8-6.7,11.5-6.7c5.8,0,5.8,6.7,11.5,6.7c5.8,0,5.8-6.7,11.5-6.7
		c5.8,0,5.8,6.7,11.5,6.7c5.8,0,5.8-6.7,11.5-6.7c5.8,0,5.8,6.7,11.5,6.7c5.8,0,5.8-6.7,11.5-6.7c5.8,0,5.8,6.7,11.5,6.7
		c5.8,0,5.8-6.7,11.5-6.7c5.8,0,5.8,6.7,11.5,6.7c5.8,0,5.8-6.7,11.6-6.7c5.8,0,5.8,6.7,11.5,6.7c5.8,0,5.8-6.7,11.5-6.7
		c5.8,0,5.8,6.7,11.5,6.7c5.8,0,5.8-6.7,11.6-6.7c5.8,0,5.8,6.7,11.5,6.7c5.8,0,5.8-6.7,11.5-6.7c5.8,0,5.8,6.7,11.5,6.7
		c5.8,0,5.8-6.7,11.5-6.7c5.8,0,5.8,6.7,11.5,6.7c5.8,0,5.8-6.7,11.6-6.7c5.8,0,5.8,6.7,11.5,6.7c5.8,0,5.8-7,11.5-7
		c5.8,0,5.8,6.5,11.5,6.5h14.6"/>
	<path class="st1" d="M843.9,79.6H825c-7,0-7-8.3-14-8.3c-7,0-7,7.9-14,7.9c-7,0-7-8.1-14-8.1c-7,0-7,8.1-14,8.1c-7,0-7-8.1-14-8.1
		c-7,0-7,8.1-14,8.1s-7-8.1-14-8.1c-7,0-7,8.1-14,8.1c-7,0-7-8.1-14-8.1c-7,0-7,8.1-14,8.1c-7,0-7-8.1-14-8.1c-7,0-7,8.1-14,8.1
		c-7,0-7-8.1-14-8.1c-7,0-7,8.1-14,8.1c-7,0-7-8.1-14-8.1c-7,0-7,8.1-14,8.1c-7,0-7-8.1-14-8.1c-7,0-7,8.1-14,8.1c-7,0-7-8.1-14-8.1
		c-7,0-7,8.1-14,8.1c-7,0-7-8.1-14-8.1c-7,0-7,8.1-13.9,8.1c-7,0-7-8.1-14-8.1c-7,0-7,8.1-14,8.1c-7,0-7-8.1-14-8.1
		c-7,0-7,8.1-14,8.1c-7,0-7-8.1-14-8.1c-7,0-7,7.9-14,7.9c-7,0-7-8.3-14-8.3h-18.9"/>
	<g>
		<g>
			<g>
				<polyline class="st1" points="454.3,158.7 463.9,167.2 454.3,175.5 				"/>
				<line class="st1" x1="463.9" y1="166.9" x2="418.8" y2="166.9"/>
			</g>
			<line class="st1" x1="411.5" y1="166.9" x2="348.9" y2="166.9"/>
		</g>
		<g>
			<polyline class="st1" points="431,190.8 440.6,199.3 431,207.7 			"/>
			<line class="st1" x1="440.6" y1="199" x2="394" y2="199"/>
		</g>
		<g>
			<polyline class="st1" points="412.5,123.2 422.2,131.7 412.5,140.1 			"/>
			<line class="st1" x1="423.2" y1="132" x2="346" y2="132"/>
		</g>
		<line class="st1" x1="386.8" y1="199" x2="373.7" y2="199"/>
	</g>
	<g>
		<g>
			<path class="st2" d="M324.1,129.8c0-7.7-5.8-13.8-13.6-13.8H37.3c-7.8,0-14.6,6.1-14.6,13.8V330h301.4V129.8z"/>
			<path class="st3" d="M0.9,330v13.9c0,7.7,6.8,13.8,15.7,13.8h314.6c8.9,0,16.2-6.1,16.2-13.8V330H0.9z"/>
			<rect x="44.6" y="133.4" class="st4" width="259.2" height="174.7"/>
			<line class="st1" x1="156.7" y1="344.6" x2="190.2" y2="344.6"/>
			<rect x="260.1" y="149.4" class="st5" width="29.1" height="46.6"/>
			<rect x="62.1" y="149.4" class="st5" width="189.3" height="46.6"/>
			<rect x="62.1" y="210.6" class="st5" width="51" height="40.8"/>
			<rect x="123.2" y="210.6" class="st5" width="164.5" height="40.8"/>
			<rect x="62.1" y="264.5" class="st5" width="225.7" height="23.3"/>
		</g>
		<g>
			<path class="st6" d="M333.3,223.6c20,0,36.2-16.2,36.2-36.3c0-20-16.1-36.3-36.2-36.3c-0.2,0-0.5,0-0.5,0v72.5
				C332.9,223.5,333.1,223.6,333.3,223.6z"/>
		</g>
		<path class="st7" d="M330,291.5c0,2.9-1.3,3.5-4.2,3.5h-21.3c-2.9,0-5-0.6-5-3.5v-208c0-2.9,2.1-5.5,5-5.5h21.3
			c2.9,0,4.2,2.6,4.2,5.5V291.5z"/>
		<g>
			<polygon class="st8" points="190.2,131.1 258.6,112.3 258.6,263.5 190.2,244.8 			"/>
			<polygon class="st3" points="299.4,101.5 299.4,154.7 299.4,221.2 299.4,274.4 258.6,263.5 258.6,112.3 			"/>
		</g>
		<g>
			<defs>
				<rect id="SVGID_1_" x="47.5" y="94.1" width="148.5" height="211.1"/>
			</defs>
			<clipPath id="SVGID_2_">
				<use xlink:href="#SVGID_1_"  style="overflow:visible;"/>
			</clipPath>
			<rect x="16.9" y="142.2" class="st9" width="46.6" height="93.2"/>
			<rect x="101.4" y="268.8" class="st10" width="42.2" height="69.9"/>
			<rect x="-2" y="169.8" class="st11" width="18.9" height="37.9"/>
			<path class="st12" d="M193.1,261.7c0,4.2-4.9,7.1-9.5,7.1H72.5c-4.5,0-9-2.9-9-7.1V116.2c0-4.2,4.5-7.5,9-7.5h111.1
				c4.5,0,9.5,3.3,9.5,7.5V261.7z"/>
			<path class="st13" d="M98.2,215.4c0,15.5,12.6,28.2,28.2,28.2c15.6,0,28.2-12.6,28.2-28.2c0-15.6-12.6-28.2-28.2-28.2
				C110.8,187.3,98.2,199.9,98.2,215.4z"/>
			<rect x="89.7" y="134.9" class="st14" width="72.8" height="23.3"/>
			<line class="st11" x1="143.6" y1="280.5" x2="121.8" y2="280.5"/>
			<line class="st11" x1="143.6" y1="295" x2="121.8" y2="295"/>
			<line class="st11" x1="89.7" y1="146.5" x2="121.8" y2="146.5"/>
			<line class="st11" x1="127.6" y1="146.5" x2="149.4" y2="146.5"/>
		</g>
		
			<ellipse transform="matrix(0.2279 -0.9737 0.9737 0.2279 -112.3033 288.3137)" class="st15" cx="125.6" cy="215" rx="18.9" ry="18.9"/>
		<line class="st1" x1="120.3" y1="215" x2="130.5" y2="215"/>
		<line class="st1" x1="220.8" y1="121.8" x2="220.8" y2="252.8"/>
		<polygon class="st16" points="242.6,259.1 223.7,253.9 223.7,121.9 242.6,116.7 		"/>
	</g>
	<g>
		<g>
			<rect x="292.1" y="223.7" class="st8" width="237.3" height="21.8"/>
			<polyline class="st17" points="529.4,357.7 529.4,245.5 292.1,245.5 292.1,357.7 552.7,357.7 			"/>
		</g>
		<line class="st1" x1="302.3" y1="232.4" x2="311" y2="232.4"/>
		<line class="st1" x1="319.8" y1="232.4" x2="328.5" y2="232.4"/>
		<line class="st1" x1="335.8" y1="232.4" x2="344.5" y2="232.4"/>
		<rect x="306.7" y="258.6" class="st18" width="10.2" height="4.4"/>
		<rect x="318.3" y="258.6" class="st19" width="8.7" height="4.4"/>
		<rect x="328.5" y="258.6" class="st0" width="8.7" height="4.4"/>
		<line class="st1" x1="348.9" y1="260.1" x2="379.5" y2="260.1"/>
		<rect x="469.7" y="260.1" class="st18" width="43.7" height="88.8"/>
		<rect x="306.7" y="271.8" class="st19" width="151.4" height="26.2"/>
		<rect x="306.7" y="305.2" class="st19" width="58.2" height="26.2"/>
		<line class="st1" x1="391.1" y1="260.1" x2="449.4" y2="260.1"/>
		<rect x="378" y="305.2" class="st2" width="77.2" height="5.8"/>
		<rect x="378" y="315.4" class="st19" width="40.8" height="7.3"/>
		<line class="st1" x1="378" y1="330" x2="430.4" y2="330"/>
		<line class="st1" x1="434.8" y1="330" x2="440.6" y2="330"/>
		<rect x="306.7" y="338.7" class="st2" width="113.6" height="5.8"/>
		<rect x="306.7" y="348.9" class="st19" width="59.7" height="5.8"/>
		<line class="st1" x1="469.7" y1="305.2" x2="513.4" y2="305.2"/>
		<g>
			<line class="st1" x1="507.6" y1="287.8" x2="488.7" y2="287.8"/>
			<line class="st1" x1="484.3" y1="287.8" x2="478.5" y2="287.8"/>
			<line class="st1" x1="507.6" y1="277.6" x2="488.7" y2="277.6"/>
			<line class="st1" x1="484.3" y1="277.6" x2="478.5" y2="277.6"/>
		</g>
		<g>
			<line class="st1" x1="506.1" y1="337.3" x2="487.2" y2="337.3"/>
			<line class="st1" x1="482.9" y1="337.3" x2="477" y2="337.3"/>
			<line class="st1" x1="506.1" y1="327.1" x2="487.2" y2="327.1"/>
			<line class="st1" x1="482.9" y1="327.1" x2="477" y2="327.1"/>
		</g>
	</g>
	<line class="st1" x1="565.8" y1="357.7" x2="581.9" y2="357.7"/>
	<g>
		<path class="st17" d="M528.7,252.4C528.7,252.4,528.7,252.4,528.7,252.4c0,0,0.3,0,0.3,0c2.6-1.9,4.8-4.9,4.8-7.3v-11.2
			c0,0-0.2-9.3-9.5-9.3c-9.3,0-9.5,9.3-9.5,9.3V245c0,2.4,2.2,5.5,4.8,7.3c0,0,0.2,0,0.2,0c0,0,0.1,0,0.1,0
			c-0.2,1.2-0.8,2.9-3.1,3.9c-2.4,1-7.3,3.4-10.4,6.4c4.7,4.1,10.7,6.5,17.4,6.5c6.9,0,13.2-2.6,17.9-6.9c-3.1-2.9-7.7-5-10-6
			C529.6,255.3,528.9,253.5,528.7,252.4z"/>
		<path class="st20" d="M523.9,216.2c-14.6,0-26.5,11.9-26.5,26.5c0,8,3.5,15.1,9.1,20c3.1-3.1,8.1-5.4,10.4-6.4
			c2.2-1,2.6-2.7,2.8-3.9c-2.6-1.9-4.8-4.9-4.8-7.3v-11.2c0,0,0.2-9.3,9.5-9.3c9.3,0,9.5,9.3,9.5,9.3V245c0,2.4-2.2,5.5-4.8,7.3
			c0.2,1.2,0.7,2.9,2.9,3.9c2.3,1,6.8,3.2,9.9,6c5.3-4.8,8.6-11.8,8.6-19.6C550.4,228.1,538.5,216.2,523.9,216.2z"/>
	</g>
	<g>
		<line class="st17" x1="913.8" y1="94.1" x2="950.2" y2="94.1"/>
		<line class="st17" x1="807.5" y1="94.1" x2="896.4" y2="94.1"/>
		<line class="st17" x1="763.9" y1="94.1" x2="794.4" y2="94.1"/>
		<line class="st17" x1="530.9" y1="94.1" x2="631.4" y2="94.1"/>
		<line class="st17" x1="389.7" y1="94.1" x2="517.8" y2="94.1"/>
		<line class="st17" x1="364.9" y1="94.1" x2="379.5" y2="94.1"/>
		<line class="st17" x1="934.2" y1="305.2" x2="950.2" y2="305.2"/>
		<line class="st17" x1="829.4" y1="305.2" x2="919.7" y2="305.2"/>
		<line class="st17" x1="740.6" y1="305.2" x2="777" y2="305.2"/>
		<line class="st17" x1="679.4" y1="305.2" x2="727.5" y2="305.2"/>
		<line class="st17" x1="545.5" y1="305.2" x2="653.2" y2="305.2"/>
		<line class="st17" x1="650.3" y1="94.1" x2="723.1" y2="94.1"/>
		<line class="st17" x1="791.5" y1="305.2" x2="811.9" y2="305.2"/>
	</g>
	<g>
		<polygon class="st21" points="771.1,67.9 675,67.9 675,133.4 724.5,133.4 724.5,156.7 748.6,133.4 771.1,133.4 		"/>
		<line class="st1" x1="686.7" y1="81" x2="705.6" y2="81"/>
		<line class="st1" x1="686.7" y1="95.6" x2="759.5" y2="95.6"/>
		<line class="st1" x1="686.7" y1="110.1" x2="759.5" y2="110.1"/>
		<line class="st1" x1="686.7" y1="121.8" x2="702.7" y2="121.8"/>
		<line class="st1" x1="712.9" y1="121.8" x2="733.3" y2="121.8"/>
		<line class="st1" x1="740.6" y1="121.8" x2="759.5" y2="121.8"/>
		<line class="st1" x1="714.4" y1="81" x2="759.5" y2="81"/>
	</g>
	<g>
		<polygon class="st18" points="785.7,338.7 881.8,338.7 881.8,273.2 832.3,273.2 832.3,249.9 808.3,273.2 785.7,273.2 		"/>
		<line class="st1" x1="870.2" y1="325.6" x2="851.2" y2="325.6"/>
		<line class="st1" x1="870.2" y1="311.1" x2="797.4" y2="311.1"/>
		<line class="st1" x1="870.2" y1="296.5" x2="797.4" y2="296.5"/>
		<line class="st1" x1="870.2" y1="284.9" x2="854.1" y2="284.9"/>
		<line class="st1" x1="843.9" y1="284.9" x2="823.6" y2="284.9"/>
		<line class="st1" x1="816.3" y1="284.9" x2="797.4" y2="284.9"/>
		<line class="st1" x1="842.5" y1="325.6" x2="797.4" y2="325.6"/>
	</g>
	<g>
		<polygon class="st22" points="463.9,65 544,65 544,120.3 503.2,120.3 503.2,139.3 482.5,120.3 463.9,120.3 		"/>
		<line class="st1" x1="533.8" y1="76.6" x2="517.8" y2="76.6"/>
		<line class="st1" x1="533.8" y1="88.3" x2="474.1" y2="88.3"/>
		<line class="st1" x1="533.8" y1="99.9" x2="474.1" y2="99.9"/>
		<line class="st1" x1="533.8" y1="110.1" x2="520.7" y2="110.1"/>
		<line class="st1" x1="512" y1="110.1" x2="496" y2="110.1"/>
		<line class="st1" x1="488.7" y1="110.1" x2="474.1" y2="110.1"/>
		<line class="st1" x1="510.5" y1="76.6" x2="474.1" y2="76.6"/>
	</g>
	<g>
		<path class="st17" d="M882.3,109.3C882.3,109.3,882.3,109.3,882.3,109.3c0,0,0.5,0,0.5,0c2.5-1.8,4.8-4.7,4.8-7V91.7
			c0,0,0.1-8.9-8.7-8.9c-8.9,0-8.7,8.9-8.7,8.9v10.6c0,2.3,1.6,5.2,4.1,7c0,0-0.1,0-0.1,0c0,0,0,0,0,0c-0.2,1.1-0.9,2.8-3,3.7
			c-2.3,1-7,3.2-9.9,6.1c4.4,3.9,10.2,6.2,16.6,6.2c6.6,0,12.5-2.5,17-6.6c-2.9-2.7-7.4-4.8-9.5-5.7
			C883.2,112.1,882.5,110.4,882.3,109.3z"/>
		<path class="st23" d="M877.8,74.9c-13.9,0-25.2,11.3-25.2,25.2c0,7.6,3.4,14.4,8.7,19c2.9-2.9,7.7-5.1,9.9-6.1
			c2.1-0.9,2.9-2.6,3.1-3.7c-2.5-1.8-4.1-4.7-4.1-7V91.7c0,0-0.1-8.9,8.7-8.9c8.9,0,8.7,8.9,8.7,8.9v10.6c0,2.3-2.3,5.2-4.8,7
			c0.2,1.1,0.6,2.8,2.7,3.7c2.1,1,6.4,3,9.4,5.7c5-4.6,8.2-11.3,8.2-18.6C903.1,86.2,891.7,74.9,877.8,74.9z"/>
	</g>
	<g>
		<rect x="592.1" y="142.2" class="st24" width="90.3" height="32"/>
		<line class="st1" x1="592.1" y1="190.2" x2="599.3" y2="190.2"/>
		<line class="st1" x1="608.1" y1="190.2" x2="664.9" y2="190.2"/>
		<line class="st1" x1="592.1" y1="209.1" x2="599.3" y2="209.1"/>
		<line class="st1" x1="608.1" y1="209.1" x2="664.9" y2="209.1"/>
		<line class="st1" x1="592.1" y1="229.5" x2="599.3" y2="229.5"/>
		<line class="st1" x1="608.1" y1="229.5" x2="682.3" y2="229.5"/>
	</g>
	<g>
		<rect x="702.7" y="229.5" class="st24" width="88.8" height="27.7"/>
		<line class="st1" x1="791.5" y1="213.5" x2="718.7" y2="213.5"/>
		<line class="st1" x1="775.5" y1="194.6" x2="718.7" y2="194.6"/>
		<line class="st1" x1="791.5" y1="174.2" x2="718.7" y2="174.2"/>
		<line class="st1" x1="781.3" y1="194.6" x2="791.5" y2="194.6"/>
	</g>
	<g>
		<rect x="603.7" y="270.3" class="st17" width="93.2" height="75.7"/>
		<rect x="612.4" y="279" class="st6" width="77.2" height="56.8"/>
		<polyline class="st1" points="612.3,316.8 643.8,300.5 674.5,318.2 		"/>
		<polyline class="st1" points="661.4,310.6 672.8,300.5 688.4,310.6 		"/>
		<path class="st24" d="M664.5,290.6c0,3.9-3.2,7.1-7.1,7.1c-3.9,0-7.1-3.2-7.1-7.1c0-3.9,3.2-7.1,7.1-7.1
			C661.3,283.5,664.5,286.6,664.5,290.6z"/>
	</g>
	<g>
		<g>
			<rect x="908" y="164" class="st18" width="85.9" height="56.8"/>
			<rect x="908" y="220.8" class="st19" width="85.9" height="13.1"/>
			<polygon class="st1" points="941.5,203.2 941.5,186.3 959.4,194.7 			"/>
			<line class="st1" x1="908" y1="164" x2="993.9" y2="164"/>
		</g>
		<line class="st1" x1="915.3" y1="226.6" x2="985.2" y2="226.6"/>
	</g>
	<g>
		<path class="st17" d="M854.9,200.9c-2.2-2.2-2.2-5.8,0-8c2.2-2.2,5.8-2.2,8,0c2.2,2.2,2.2,5.8,0,8
			C860.7,203.1,857.1,203.1,854.9,200.9z"/>
		<path class="st17" d="M826.3,192.9c-2.2-2.2-2.2-5.8,0-8c2.2-2.2,5.8-2.2,8,0c2.2,2.2,2.2,5.8,0,8
			C832.1,195.1,828.5,195.1,826.3,192.9z"/>
		<path class="st17" d="M846.8,172.3c-2.2-2.2-2.2-5.8,0-8c2.2-2.2,5.8-2.2,8,0c2.2,2.2,2.2,5.8,0,8
			C852.6,174.5,849,174.5,846.8,172.3z"/>
		<line class="st17" x1="852.4" y1="173.7" x2="857.6" y2="191.4"/>
		<line class="st17" x1="835.7" y1="190.4" x2="853.4" y2="195.6"/>
	</g>
	<g>
		<path class="st17" d="M523.5,174c2.2-2.2,5.8-2.2,8,0c2.2,2.2,2.2,5.8,0,8c-2.2,2.2-5.8,2.2-8,0
			C521.3,179.8,521.3,176.2,523.5,174z"/>
		<path class="st17" d="M531.6,145.4c2.2-2.2,5.8-2.2,8,0c2.2,2.2,2.2,5.8,0,8c-2.2,2.2-5.8,2.2-8,0
			C529.4,151.2,529.4,147.6,531.6,145.4z"/>
		<path class="st17" d="M552.1,165.9c2.2-2.2,5.8-2.2,8,0c2.2,2.2,2.2,5.8,0,8c-2.2,2.2-5.8,2.2-8,0
			C549.9,171.7,549.9,168.1,552.1,165.9z"/>
		<line class="st17" x1="550.7" y1="171.5" x2="533" y2="176.7"/>
		<line class="st17" x1="534" y1="154.8" x2="528.9" y2="172.5"/>
	</g>
	<g>
		<line class="st1" x1="859.6" y1="232.3" x2="875" y2="247.7"/>
		<line class="st1" x1="859.6" y1="247.7" x2="875" y2="232.3"/>
	</g>
	<g>
		<line class="st1" x1="584.5" y1="112.9" x2="599.8" y2="128.3"/>
		<line class="st1" x1="584.5" y1="128.3" x2="599.8" y2="112.9"/>
	</g>
	<g>
		<line class="st1" x1="960.1" y1="117.3" x2="975.5" y2="132.7"/>
		<line class="st1" x1="960.1" y1="132.7" x2="975.5" y2="117.3"/>
	</g>
	<g>
		<line class="st1" x1="798.5" y1="124.6" x2="813.9" y2="140"/>
		<line class="st1" x1="798.5" y1="140" x2="813.9" y2="124.6"/>
	</g>
	<g>
		<line class="st1" x1="728.6" y1="270.2" x2="744" y2="285.6"/>
		<line class="st1" x1="728.6" y1="285.6" x2="744" y2="270.2"/>
	</g>
	<g>
		<line class="st1" x1="926.6" y1="267.3" x2="942" y2="282.6"/>
		<line class="st1" x1="926.6" y1="282.6" x2="942" y2="267.3"/>
	</g>
	<g>
		<line class="st1" x1="481.1" y1="175.5" x2="496.5" y2="190.9"/>
		<line class="st1" x1="481.1" y1="190.9" x2="496.5" y2="175.5"/>
	</g>
	<line class="st1" x1="631.4" y1="248.5" x2="679.4" y2="248.5"/>
	<line class="st1" x1="791.5" y1="155.3" x2="758" y2="155.3"/>
	<g>
		<g>
			<line class="st1" x1="698.3" y1="197.5" x2="710" y2="197.5"/>
		</g>
		<g>
			<polygon class="st6" points="670.7,178.6 718.7,178.6 718.7,209.1 695.4,209.1 695.4,220.8 681.8,209.1 670.7,209.1 			"/>
			<line class="st1" x1="691.1" y1="185.8" x2="711.4" y2="185.8"/>
			<line class="st1" x1="711.4" y1="197.5" x2="678" y2="197.5"/>
		</g>
	</g>
	<g>
		<g>
			<line class="st1" x1="640.1" y1="107.2" x2="651.7" y2="107.2"/>
		</g>
		<g>
			<polygon class="st18" points="612.4,88.3 660.5,88.3 660.5,118.9 637.2,118.9 637.2,130.5 623.6,118.9 612.4,118.9 			"/>
			<line class="st1" x1="632.8" y1="95.6" x2="653.2" y2="95.6"/>
			<line class="st1" x1="653.2" y1="107.2" x2="619.7" y2="107.2"/>
		</g>
	</g>
	<g>
		<g>
			<line class="st1" x1="580.4" y1="263" x2="568.8" y2="263"/>
		</g>
		<g>
			<polygon class="st25" points="608.1,281.9 560,281.9 560,251.4 583.3,251.4 583.3,239.7 596.9,251.4 608.1,251.4 			"/>
			<line class="st1" x1="587.7" y1="274.7" x2="567.3" y2="274.7"/>
			<line class="st1" x1="567.3" y1="263" x2="600.8" y2="263"/>
		</g>
	</g>
	<g>
		<g>
			<line class="st1" x1="892" y1="130.5" x2="880.3" y2="130.5"/>
		</g>
		<g>
			<polygon class="st25" points="919.7,149.4 871.6,149.4 871.6,118.9 894.9,118.9 894.9,107.2 908.5,118.9 919.7,118.9 			"/>
			<line class="st1" x1="899.3" y1="142.2" x2="878.9" y2="142.2"/>
			<line class="st1" x1="878.9" y1="130.5" x2="912.4" y2="130.5"/>
		</g>
	</g>
</g>
</svg>
