<?xml version="1.0" encoding="utf-8"?>
<!-- Generator: Adobe Illustrator 22.0.1, SVG Export Plug-In . SVG Version: 6.00 Build 0)  -->
<svg version="1.1" id="Слой_1" xmlns="http://www.w3.org/2000/svg" xmlns:xlink="http://www.w3.org/1999/xlink" x="0px" y="0px"
	 viewBox="0 0 648.9 368.3" style="enable-background:new 0 0 648.9 368.3;" xml:space="preserve">
<style type="text/css">
	.st0{fill:#E3E4E4;}
	.st1{fill:#A7A9AC;stroke:#231F20;stroke-width:6;stroke-linejoin:round;stroke-miterlimit:10;}
	.st2{fill:#D1D3D4;stroke:#231F20;stroke-width:6;stroke-linejoin:round;stroke-miterlimit:10;}
	.st3{fill:#FFFFFF;}
	.st4{fill:none;stroke:#231F20;stroke-width:6;stroke-linejoin:round;stroke-miterlimit:10;}
	.st5{fill:#F1F2F2;}
	.st6{fill:#3B9ADA;}
	.st7{fill:#D1D3D4;stroke:#231F20;stroke-width:5.8599;stroke-linejoin:round;stroke-miterlimit:10;}
	.st8{fill:#6D6E71;}
	.st9{fill:#F1F2F2;stroke:#231F20;stroke-width:6;stroke-linejoin:round;stroke-miterlimit:10;}
	.st10{fill:#FFCB31;stroke:#231F20;stroke-width:6;stroke-linejoin:round;stroke-miterlimit:10;}
	.st11{fill:#FDBB33;}
	.st12{fill:#FFFFFF;stroke:#231F20;stroke-width:6;stroke-linejoin:round;stroke-miterlimit:10;}
	.st13{fill:#3B9ADA;stroke:#231F20;stroke-width:6;stroke-linejoin:round;stroke-miterlimit:10;}
	.st14{fill:#FFCB31;stroke:#231F20;stroke-width:5.8599;stroke-linejoin:round;stroke-miterlimit:10;}
</style>
<g>
	<path class="st0" d="M338.4,4.2C238,4.2,156.7,85.6,156.7,185.9c0,100.3,81.3,181.7,181.7,181.7c100.3,0,181.7-81.3,181.7-181.7
		C520,85.6,438.7,4.2,338.4,4.2z M338.4,310.4c-68.8,0-124.6-55.8-124.6-124.6c0-68.8,55.8-124.5,124.6-124.5
		c68.8,0,124.5,55.8,124.5,124.5C462.9,254.7,407.1,310.4,338.4,310.4z"/>
</g>
<g>
	<rect x="107" y="161" class="st1" width="176" height="46"/>
	<rect x="107" y="207" class="st2" width="176" height="47"/>
	<rect x="107" y="254" class="st1" width="176" height="44"/>
	<path class="st3" d="M130.4,228.4c0,5.7,4.6,10.3,10.3,10.3c5.7,0,10.3-4.6,10.3-10.3c0-5.7-4.6-10.3-10.3-10.3
		C135,218.1,130.4,222.8,130.4,228.4z"/>
	<path class="st3" d="M163.1,228.4c0,5.7,4.6,10.3,10.3,10.3c5.7,0,10.3-4.6,10.3-10.3c0-5.7-4.6-10.3-10.3-10.3
		C167.7,218.1,163.1,222.8,163.1,228.4z"/>
	<line class="st4" x1="258" y1="268" x2="130" y2="268"/>
	<line class="st4" x1="258" y1="280" x2="130" y2="280"/>
	<line class="st4" x1="258" y1="221" x2="258" y2="233"/>
	<line class="st4" x1="247" y1="221" x2="247" y2="233"/>
	<line class="st4" x1="236" y1="221" x2="236" y2="233"/>
	<line class="st4" x1="223" y1="221" x2="223" y2="233"/>
	<line class="st4" x1="211" y1="221" x2="211" y2="233"/>
	<line class="st4" x1="179" y1="227" x2="170" y2="227"/>
	<line class="st4" x1="145" y1="227" x2="138" y2="227"/>
	<rect x="132" y="175" class="st5" width="6" height="17"/>
	<rect x="145" y="175" class="st5" width="4" height="17"/>
	<rect x="155" y="175" class="st5" width="8" height="17"/>
	<rect x="168" y="175" class="st5" width="8" height="17"/>
	<rect x="182" y="175" class="st5" width="5" height="17"/>
	<line class="st4" x1="265" y1="176" x2="193" y2="176"/>
	<line class="st4" x1="265" y1="189" x2="193" y2="189"/>
</g>
<g>
	<path class="st6" d="M132.1,75.6c7.2,0,13.9,2.2,19.5,6c3.8-4.3,8.9-7.3,14.8-8.3c-0.2-1.6-0.4-3.3-0.4-5c0-19,15.4-34.4,34.3-34.4
		c19,0,34.4,15.4,34.4,34.3c0,2.8-0.3,5.5-1,8.1c2.5-0.6,5.2-0.8,7.9-0.8c19,0,34.3,14.4,34.3,34.4H97.8
		C97.8,90,113.1,75.6,132.1,75.6z"/>
	<path class="st7" d="M275.5,109.8"/>
	<path class="st7" d="M233.7,76.4c0,0-4.2,3.4-5.6,4.1"/>
	<path class="st7" d="M151.6,81.5c0,0,1.9,3.2,2,5.7"/>
</g>
<g>
	<path class="st8" d="M482,86.9c0-7.2-6.1-11.9-13.2-11.9H215.6c-7.2,0-13.6,4.7-13.6,11.9V271h280V86.9z"/>
	<path class="st9" d="M180,271v14.2c0,7.2,8.2,12.8,16.5,12.8h291.4c8.3,0,16.1-5.7,16.1-12.8V271H180z"/>
	<rect x="220" y="90" class="st10" width="244" height="164"/>
	<line class="st4" x1="327" y1="286" x2="359" y2="286"/>
	<rect x="422" y="110" class="st11" width="23" height="40"/>
	<rect x="242" y="110" class="st11" width="168" height="40"/>
	<rect x="242" y="161" class="st11" width="46" height="40"/>
	<rect x="297" y="161" class="st11" width="144" height="40"/>
	<rect x="242" y="214" class="st11" width="199" height="19"/>
</g>
<g>
	<rect x="394" y="161" class="st1" width="176" height="46"/>
	<rect x="394" y="207" class="st2" width="176" height="47"/>
	<rect x="394" y="254" class="st1" width="176" height="44"/>
	<path class="st3" d="M417.5,228.4c0,5.7,4.6,10.3,10.3,10.3c5.7,0,10.3-4.6,10.3-10.3c0-5.7-4.6-10.3-10.3-10.3
		C422.2,218.1,417.5,222.8,417.5,228.4z"/>
	<path class="st3" d="M450.3,228.4c0,5.7,4.6,10.3,10.3,10.3c5.7,0,10.3-4.6,10.3-10.3c0-5.7-4.6-10.3-10.3-10.3
		C454.9,218.1,450.3,222.8,450.3,228.4z"/>
	<line class="st4" x1="546" y1="268" x2="417" y2="268"/>
	<line class="st4" x1="546" y1="280" x2="417" y2="280"/>
	<line class="st4" x1="546" y1="221" x2="546" y2="233"/>
	<line class="st4" x1="535" y1="221" x2="535" y2="233"/>
	<line class="st4" x1="521" y1="221" x2="521" y2="233"/>
	<line class="st4" x1="510" y1="221" x2="510" y2="233"/>
	<line class="st4" x1="498" y1="221" x2="498" y2="233"/>
	<line class="st4" x1="466" y1="227" x2="457" y2="227"/>
	<line class="st4" x1="432" y1="227" x2="426" y2="227"/>
	<rect x="420" y="175" class="st5" width="6" height="17"/>
	<rect x="432" y="175" class="st5" width="4" height="17"/>
	<rect x="442" y="175" class="st5" width="6" height="17"/>
	<rect x="454" y="175" class="st5" width="9" height="17"/>
	<rect x="469" y="175" class="st5" width="6" height="17"/>
	<line class="st4" x1="552" y1="176" x2="482" y2="176"/>
	<line class="st4" x1="552" y1="189" x2="482" y2="189"/>
</g>
<rect x="253" y="182" class="st12" width="33" height="72"/>
<rect x="299" y="144" class="st12" width="31" height="110"/>
<rect x="343" y="57" class="st13" width="30" height="197"/>
<line class="st4" x1="343" y1="75" x2="360" y2="75"/>
<line class="st4" x1="343" y1="104" x2="360" y2="104"/>
<line class="st4" x1="343" y1="135" x2="360" y2="135"/>
<line class="st4" x1="343" y1="164" x2="360" y2="164"/>
<line class="st4" x1="343" y1="195" x2="360" y2="195"/>
<line class="st4" x1="343" y1="224" x2="360" y2="224"/>
<g>
	<path class="st3" d="M546.9,101.3c-7.6,0-14.7,2.1-20.5,6.1c-4-4.5-9.4-7.8-15.6-8.8c0.3-1.7,0.4-3.6,0.4-5.4
		c0-20-16.2-36.2-36.2-36.2c-20,0-36.2,16.2-36.2,36.2c0,2.9,0.4,5.8,1,8.5c-2.7-0.6-5.5-0.5-8.3-0.5c-20,0-36.2,14.7-36.2,36.7
		h187.8C583.1,116,566.9,101.3,546.9,101.3z"/>
	<path class="st14" d="M395.9,136.9"/>
	<path class="st14" d="M439.8,101.7c0,0,4.4,3.5,5.9,4.3"/>
	<path class="st14" d="M526.4,107.2c0,0-2,3.4-2.1,6"/>
</g>
</svg>
