<?xml version="1.0" encoding="utf-8"?>
<!-- Generator: Adobe Illustrator 22.0.1, SVG Export Plug-In . SVG Version: 6.00 Build 0)  -->
<svg version="1.1" id="Слой_1" xmlns="http://www.w3.org/2000/svg" xmlns:xlink="http://www.w3.org/1999/xlink" x="0px" y="0px"
	 viewBox="0 0 749.3 415.8" style="enable-background:new 0 0 749.3 415.8;" xml:space="preserve">
<style type="text/css">
	.st0{fill:none;stroke:#231F20;stroke-width:5.8599;stroke-linejoin:round;stroke-miterlimit:10;stroke-dasharray:10.2548;}
	.st1{fill:#6D6E71;stroke:#231F20;stroke-width:6;stroke-linejoin:round;stroke-miterlimit:10;}
	.st2{fill:#939598;stroke:#231F20;stroke-width:6;stroke-linejoin:round;stroke-miterlimit:10;}
	.st3{fill:#F1F2F2;}
	.st4{opacity:0.6;}
	.st5{fill:#D1D3D4;}
	.st6{opacity:0.6;fill:#D1D3D4;}
	.st7{fill:none;stroke:#231F20;stroke-width:6;stroke-linejoin:round;stroke-miterlimit:10;}
	.st8{fill:#58595B;}
	.st9{fill:#FFFFFF;}
	.st10{fill:#D1D3D4;stroke:#231F20;stroke-width:5.8599;stroke-linejoin:round;stroke-miterlimit:10;}
	.st11{fill:#BCBEC0;stroke:#231F20;stroke-width:6;stroke-linejoin:round;stroke-miterlimit:10;}
	.st12{fill:#FFCB31;stroke:#231F20;stroke-width:6;stroke-linejoin:round;stroke-miterlimit:10;}
	.st13{fill:#A7A9AC;}
	.st14{fill:#FFCB31;}
	.st15{fill:#FFFFFF;stroke:#231F20;stroke-width:6;stroke-linejoin:round;stroke-miterlimit:10;}
	.st16{fill:#D1D3D4;stroke:#231F20;stroke-width:6;stroke-linejoin:round;stroke-miterlimit:10;}
</style>
<path class="st0" d="M277.7,324.7c-29.8-27.3-48.5-66.6-48.5-110.2c0-82.5,66.9-149.4,149.4-149.4c82.5,0,149.4,66.9,149.4,149.4
	c0,41.2-16.7,78.6-43.8,105.6"/>
<path class="st0" d="M274.1,376.5c-50.4-34.1-83.5-91.7-83.5-157.1c0-104.6,84.8-189.5,189.5-189.5c104.6,0,189.5,84.8,189.5,189.5
	c0,63.2-30.9,119.2-78.5,153.6"/>
<g>
	<path class="st1" d="M471.3,131.9c0-7.4-6.8-13.7-14.2-13.7H300.3c-7.4,0-14,6.3-14,13.7v39.3h185V131.9z"/>
	<polyline class="st2" points="471.3,401.2 471.3,171.2 286.3,171.2 286.3,401.2 	"/>
</g>
<path class="st3" d="M460.3,187.6c0-1.9-1.5-3.4-3.4-3.4H303.7c-1.9,0-3.4,1.5-3.4,3.4v192.3c0,1.9,1.5,3.4,3.4,3.4h153.3
	c1.9,0,3.4-1.5,3.4-3.4V187.6z"/>
<g>
	<g class="st4">
		<rect x="311.3" y="285.2" class="st5" width="15" height="39"/>
		<rect x="333.3" y="285.2" class="st5" width="112" height="39"/>
		<rect x="414.3" y="232.2" class="st5" width="31" height="40"/>
		<rect x="314.3" y="232.2" class="st5" width="90" height="40"/>
		<rect x="314.3" y="198.2" class="st5" width="131" height="21"/>
	</g>
	<rect x="311.3" y="333.2" class="st6" width="135" height="34"/>
</g>
<line class="st7" x1="258.3" y1="401.2" x2="500.3" y2="401.2"/>
<path class="st8" d="M336.1,143.7c0,2.2,1.8,3.5,3.9,3.5h50.4c2.2,0,3.9-1.3,3.9-3.5c0-2.2-1.8-3.5-3.9-3.5H340
	C337.9,140.2,336.1,141.6,336.1,143.7C336.1,143.7,336.1,141.6,336.1,143.7z"/>
<path class="st8" d="M406,143.7c0,2.2,1.8,3.5,3.9,3.5h7.9c2.2,0,3.9-1.3,3.9-3.5c0-2.2-1.8-3.5-3.9-3.5h-7.9
	C407.8,140.2,406,141.6,406,143.7C406,143.7,406,141.6,406,143.7z"/>
<g>
	<path class="st9" d="M564.9,166.6c-7.2,0-13.9,2.5-19.4,6.3c-3.7-4.3-8.9-7.1-14.7-8.1c0.2-1.6,0.4-3.2,0.4-4.9
		c0-18.9-15.3-34.1-34.2-34.1c-18.9,0-34.2,15.3-34.2,34.2c0,2.8,0.3,5.5,1,8.1c-2.5-0.6-5.2-1.4-7.9-1.4
		c-18.9,0-34.2,14.6-34.2,33.6H599C599,181.2,583.7,166.6,564.9,166.6z"/>
	<path class="st10" d="M422.3,201.3"/>
	<path class="st10" d="M463.8,168.1c0,0,4.2,3.3,5.5,4.1"/>
	<path class="st10" d="M545.5,173.2c0,0-1.9,3.2-2,5.7"/>
</g>
<g>
	<path class="st9" d="M179.4,107.7c7.4,0,14.2,2.1,19.9,6c3.8-4.4,9.1-7.5,15.1-8.5c-0.2-1.7-0.4-3.4-0.4-5.2
		c0-19.4,15.7-35.1,35.1-35.1c19.4,0,35.1,15.7,35.1,35c0,2.9-0.4,5.6-1,8.3c2.6-0.6,5.3-0.5,8.1-0.5c19.4,0,35.1,14.5,35.1,35.5
		H144.4C144.4,122.2,160.1,107.7,179.4,107.7z"/>
	<path class="st10" d="M325.7,142.4"/>
	<path class="st10" d="M283.2,108.3c0,0-4.3,3.4-5.7,4.2"/>
	<path class="st10" d="M199.3,113.5c0,0,1.9,3.3,2,5.9"/>
</g>
<g>
	<polygon class="st11" points="450.3,285.1 500.4,247.6 450.3,210 450.3,229.2 387.3,229.2 387.3,263.2 450.3,263.2 	"/>
</g>
<g>
	<polygon class="st12" points="297.3,271.6 247.2,309.2 297.3,346.7 297.3,327.2 360.3,327.2 360.3,294.2 297.3,294.2 	"/>
</g>
<line class="st7" x1="360.3" y1="280.2" x2="360.3" y2="342.2"/>
<line class="st7" x1="387.3" y1="217.2" x2="387.3" y2="278.2"/>
<g>
	<polygon class="st13" points="295.9,229.2 305.2,246.5 314.6,229.2 358.3,229.2 358.3,194.2 254.3,194.2 254.3,229.2 	"/>
	<line class="st7" x1="264.3" y1="204.2" x2="285.3" y2="204.2"/>
	<line class="st7" x1="264.3" y1="219.2" x2="341.3" y2="219.2"/>
	<line class="st7" x1="297.3" y1="204.2" x2="320.3" y2="204.2"/>
</g>
<g>
	<polygon class="st14" points="460.5,322.2 451.2,305 441.8,322.2 398.3,322.2 398.3,357.2 502.3,357.2 502.3,322.2 	"/>
	<line class="st7" x1="491.3" y1="346.2" x2="471.3" y2="346.2"/>
	<line class="st7" x1="491.3" y1="332.2" x2="415.3" y2="332.2"/>
	<line class="st7" x1="459.3" y1="346.2" x2="436.3" y2="346.2"/>
</g>
<g>
	<path class="st15" d="M380.5,62.9C380.5,62.9,380.4,62.9,380.5,62.9c0,0-0.2,0-0.2,0c3.7-2.6,6.1-6.9,6.1-10.3V36.9
		c0,0,0.6-13.1-12.5-13.1c-13.1,0-12.5,13.1-12.5,13.1v15.7c0,3.4,2.9,7.7,6.6,10.3c0,0,0.2,0,0.2,0c0,0,0.1,0,0.1,0
		c-0.3,1.7-1.2,4.1-4.3,5.5c-3.3,1.5-10.3,4.7-14.6,9c6.5,5.7,15.1,9.1,24.4,9.1c9.7,0,18.5-3.7,25.1-9.7c-4.3-4-10.9-7-14-8.4
		C381.7,67,380.7,64.6,380.5,62.9z"/>
	<path class="st12" d="M373.7,12.1c-20.6,0-37.2,16.7-37.2,37.2c0,11.2,5,21.3,12.8,28.1c4.3-4.3,11.3-7.6,14.6-9
		c3.1-1.4,3.7-3.8,4-5.5c-3.7-2.6-6.6-6.9-6.6-10.3V36.9c0,0-0.6-13.1,12.5-13.1c13.1,0,12.5,13.1,12.5,13.1v15.7
		c0,3.4-2.4,7.7-6.1,10.3c0.3,1.7,1.4,4.1,4.5,5.5c3.2,1.4,9.7,4.4,14.1,8.4c7.4-6.8,12.2-16.6,12.2-27.5
		C410.9,28.8,394.3,12.1,373.7,12.1z"/>
</g>
<g>
	<path class="st11" d="M188.2,234.2C188.2,234.2,188.2,234.1,188.2,234.2C188.2,234.1,188.1,234.2,188.2,234.2
		c3.6-2.6,6.1-6.9,6.1-10.3v-15.7c0,0,0.1-13.1-13-13.1c-13.1,0-13,13.1-13,13.1v15.7c0,3.4,3.3,7.7,7,10.3c0,0,0.3,0,0.3,0
		c0,0,0.2,0,0.2,0c-0.3,1.7-1.2,4.1-4.3,5.5c-3.3,1.5-10.3,4.7-14.6,9c6.5,5.7,15.1,9.1,24.5,9.1c9.7,0,18.5-3.7,25.1-9.7
		c-4.3-4-10.8-7-14-8.4C189.4,238.3,188.5,235.8,188.2,234.2z"/>
	<path class="st15" d="M181.4,183.4c-20.6,0-37.2,16.7-37.2,37.2c0,11.2,5,21.3,12.8,28.1c4.3-4.3,11.3-7.6,14.6-9
		c3.1-1.4,3.4-3.8,3.7-5.5c-3.7-2.6-7-6.9-7-10.3v-15.7c0,0-0.1-13.1,13-13.1c13.1,0,13,13.1,13,13.1v15.7c0,3.4-2.5,7.7-6.2,10.3
		c0.3,1.7,1.3,4.1,4.4,5.5c3.2,1.4,9.7,4.4,14,8.4c7.4-6.8,12.1-16.6,12.1-27.5C218.7,200,202,183.4,181.4,183.4z"/>
</g>
<g>
	<path class="st15" d="M575.7,304.8C575.7,304.8,575.7,304.7,575.7,304.8c0,0-0.4,0-0.4,0c3.7-2.6,5.9-6.9,5.9-10.3v-15.7
		c0,0,0.6-13.1-12.5-13.1c-13.1,0-12.5,13.1-12.5,13.1v15.7c0,3.4,3.1,7.7,6.8,10.3c0,0,0.2,0,0.2,0c0,0,0.1,0,0.1,0
		c-0.3,1.7-1.2,4.1-4.3,5.5c-3.3,1.5-10.3,4.7-14.6,9c6.5,5.7,15.1,9.1,24.4,9.1c9.7,0,18.5-3.7,25.1-9.7c-4.3-4-10.9-7-14-8.4
		C577,308.9,576,306.4,575.7,304.8z"/>
	<path class="st16" d="M569,254c-20.6,0-37.2,16.7-37.2,37.2c0,11.2,5,21.3,12.8,28.1c4.3-4.3,11.3-7.6,14.6-9
		c3.1-1.4,3.6-3.8,3.9-5.5c-3.7-2.6-6.8-6.9-6.8-10.3v-15.7c0,0-0.6-13.1,12.5-13.1c13.1,0,12.5,13.1,12.5,13.1v15.7
		c0,3.4-2.2,7.7-5.9,10.3c0.3,1.7,1.4,4.1,4.5,5.5c3.2,1.4,9.8,4.4,14.1,8.4c7.4-6.8,12.2-16.6,12.2-27.5
		C606.2,270.6,589.6,254,569,254z"/>
</g>
</svg>
