<?xml version="1.0" encoding="utf-8"?>
<!-- Generator: Adobe Illustrator 22.0.1, SVG Export Plug-In . SVG Version: 6.00 Build 0)  -->
<svg version="1.1" id="Слой_1" xmlns="http://www.w3.org/2000/svg" xmlns:xlink="http://www.w3.org/1999/xlink" x="0px" y="0px"
	 viewBox="0 0 474.4 385.3" style="enable-background:new 0 0 474.4 385.3;" xml:space="preserve">
<style type="text/css">
	.st0{fill:#FFFFFF;}
	.st1{fill:#1E5F87;}
	.st2{fill:#2A3740;}
	.st3{fill:#0E6AB3;}
	.st4{fill:#586B7D;}
	.st5{fill:#A0D4EC;}
	.st6{fill:#486786;}
	.st7{fill:#202B33;}
	.st8{fill:#B3B3B3;}
	.st9{fill:#D1D1D1;}
	.st10{fill:#00DBAB;}
	.st11{fill:#F65B45;}
	.st12{fill:#FCB237;}
	.st13{fill:#638CB5;}
	.st14{fill:#0955A6;}
	.st15{fill:#1E60A6;}
	.st16{font-family:'BebasNeueBold';}
	.st17{font-size:35px;}
	.st18{letter-spacing:3;}
	.st19{fill:none;}
	.st20{font-family:'MyriadPro-Regular';}
	.st21{font-size:12px;}
	.st22{fill:#878787;}
	.st23{fill:#FFA970;}
	.st24{fill:#FF954F;}
	.st25{fill:#E07B48;}
	.st26{fill:#422014;}
	.st27{fill:#F87056;}
	.st28{fill:#F88670;}
	.st29{fill:#A22D36;}
	.st30{fill:#FEFEFC;}
	.st31{fill:#C93646;}
	.st32{fill:#A1A1A1;}
	.st33{fill:#964419;}
	.st34{fill:#226EBD;}
	.st35{fill:#9E481A;}
	.st36{fill:#E84027;}
	.st37{fill:#236B99;}
	.st38{fill:#1E5B82;}
	.st39{fill:#2674A6;}
	.st40{fill:#455866;}
</style>
<path class="st0" d="M106.8,32.7C92.9,34,81.4,45.4,80.1,59.5c-1.8,19,13.9,30.9,32.1,29.2c1.4-0.1,2.8-0.4,4.2-0.7
	c4.3,2.9,9.6,4.4,14.8,4.1c-2.5-1.4-4.7-3.8-6.2-6.3c-0.1-0.2-0.3-0.5-0.4-0.7c8.1-4,14.4-11,14.9-20.3
	C140.5,46.5,125.3,30.9,106.8,32.7z"/>
<ellipse class="st1" cx="221.7" cy="360.9" rx="214.3" ry="9.7"/>
<g>
	<path class="st2" d="M404.8,145H124.1c-2.8,0-5.1,2.1-5.4,4.9l-18.1,189.9h291.6l18-188.9C410.5,147.8,408,145,404.8,145z"/>
	<path class="st0" d="M294.4,348.3c-0.7,1.7-1.7,3.2-2.9,4.5c-2.5,2.5-5.8,4-9.6,4H37.9c-5.7,0-10.5-3.5-12.6-8.4"/>
	<path class="st3" d="M175.4,348.2H142c-3.3,0-6-2.7-6-6v-2.4h45.4v2.4C181.4,345.6,178.7,348.2,175.4,348.2z"/>
	<path class="st4" d="M395.3,162.4l-1.3,14.1l-11.8,124l-0.1,0.6l-2.1,22c-0.1,0.9-0.6,1.8-1.3,2.3c-0.5,0.4-1.1,0.6-1.8,0.6H119.7
		c-1.8,0-3-1.6-3-3.4v-0.1l2-21.4l0-0.6l13.2-138.7c0.2-1.6,1.5-3,3.1-3h257.2C394.1,158.8,395.5,160.5,395.3,162.4z"/>
	<path class="st5" d="M394.3,176.8l-11.8,123.8l0,0.2l-0.1,0.6l-2.1,22c-0.1,0.9-0.6,1.6-1.3,2.1c-0.5,0.4-1.1,0.4-1.8,0.4H120
		c-1.8,0-3.4-1.2-3.4-3v-0.1l2.2-21.4l0.1-0.6l0-0.2l13.2-138.2c0.2-1.6,1.5-2.7,3.2-2.7h33.3c4.7,0,8.9,2.7,10.3,7.3l3.1,9.7H394.3
		z"/>
	<path class="st6" d="M382.5,300.8l0,0.1l-0.1,0.5l-2.1,21.9c-0.1,0.9-0.6,1.5-1.3,2.1c-0.5,0.4-1.1,0.4-1.8,0.4H120
		c-1.8,0-3.4-1.2-3.4-3v-0.1l2.2-21.4l0.1-0.5l0-0.1H382.5z"/>
	<path class="st7" d="M411.9,145h-7.1c3.2,0,5.7,2.7,5.4,5.9l-18,188.9l0,0c4,0,7.4-3.1,7.8-7.1L417.3,151
		C417.6,147.8,415.1,145,411.9,145z"/>
	<path class="st8" d="M392.2,343.1c0,3.7-1.5,7.1-4,9.6c-2.5,2.5-5.8,4-9.6,4H37.9c-7,0-12.8-5.4-13.5-12.2c0-0.4-0.1-0.9-0.1-1.4
		c0-0.9,0.4-1.7,1-2.3c0.6-0.6,1.4-1,2.3-1h361.2C390.7,339.8,392.2,341.3,392.2,343.1z"/>
	<path class="st7" d="M367.3,352c-0.1,0-0.3,0-0.4-0.1c-0.5-0.2-0.7-0.8-0.5-1.3c0.7-1.6,1.1-3.4,1.1-5.2c0-0.6,0.4-1,1-1
		c0.6,0,1,0.4,1,1c0,2.1-0.4,4.1-1.3,6C368,351.8,367.6,352,367.3,352z"/>
	<path class="st7" d="M372.3,352c-0.1,0-0.3,0-0.4-0.1c-0.5-0.2-0.7-0.8-0.5-1.3c0.7-1.6,1.1-3.4,1.1-5.2c0-0.6,0.4-1,1-1
		c0.6,0,1,0.4,1,1c0,2.1-0.4,4.1-1.3,6C373,351.8,372.7,352,372.3,352z"/>
	<path class="st7" d="M377.3,352c-0.1,0-0.3,0-0.4-0.1c-0.5-0.2-0.7-0.8-0.5-1.3c0.7-1.6,1.1-3.4,1.1-5.2c0-0.6,0.4-1,1-1
		c0.6,0,1,0.4,1,1c0,2.1-0.4,4.1-1.3,6C378.1,351.8,377.7,352,377.3,352z"/>
	<path class="st9" d="M295.4,343.1c0,0.5,0,0.9-0.1,1.4c-0.3,3.2-1.7,6.1-3.9,8.2c-2.5,2.5-5.8,4-9.6,4H37.9
		c-7,0-12.8-5.4-13.5-12.2c0-0.4-0.1-0.9-0.1-1.4c0-0.9,0.4-1.7,1-2.3c0.6-0.6,1.4-1,2.3-1h264.5
		C293.9,339.8,295.4,341.3,295.4,343.1z"/>
	<path class="st7" d="M175.4,348.2H142c-3.3,0-6-2.7-6-6v-2.4h45.4v2.4C181.4,345.6,178.7,348.2,175.4,348.2z"/>
	<circle class="st7" cx="315.5" cy="348.3" r="3"/>
	<path class="st7" d="M331.3,348.3c0-1.7-1.4-3-3-3c-1.7,0-3,1.4-3,3c0,1.7,1.4,3,3,3C329.9,351.3,331.3,349.9,331.3,348.3z"/>
	<path class="st10" d="M356.5,167.2c0-1.8-1.5-3.2-3.2-3.2c-1.8,0-3.2,1.5-3.2,3.2c0,1.8,1.5,3.2,3.2,3.2
		C355.1,170.5,356.5,169,356.5,167.2z"/>
	<path class="st11" d="M370.2,167.2c0-1.8-1.5-3.2-3.2-3.2s-3.2,1.5-3.2,3.2c0,1.8,1.5,3.2,3.2,3.2S370.2,169,370.2,167.2z"/>
	<path class="st12" d="M384,167.2c0-1.8-1.5-3.2-3.2-3.2c-1.8,0-3.2,1.5-3.2,3.2c0,1.8,1.5,3.2,3.2,3.2
		C382.5,170.5,384,169,384,167.2z"/>
	<path class="st13" d="M368.6,312.8H137.4c-0.8,0-1.4,0.6-1.4,1.4v0.5c0,0.8,0.6,1.4,1.4,1.4h231.2c0.8,0,1.4-0.6,1.4-1.4v-0.5
		C370.1,313.4,369.4,312.8,368.6,312.8z"/>
	<circle class="st0" cx="139.7" cy="314.4" r="5.1"/>
	<path class="st14" d="M261.8,309.4"/>
</g>
<path class="st0" d="M137.3,141c-4.1-12.5-14.5-22.3-26.5-27.7c-20.6-9.2-51.2-5.8-65.8,12.5c-12.2,15.3-9.6,37.6,4.5,50.6
	c12.9,11.8,35.9,16,55.5,12.1c9.2,8.1,23.8,9.4,34.2,2.9c-6.7-0.7-13.2-3.8-18.1-8.4C135.5,175.4,144,161.5,137.3,141z"/>
<path class="st7" d="M88.6,149.8c-1.4-5.1-2.3-11-5.7-15.1c-0.9-1-2.8-0.5-3.1,0.8c-0.8,4.1,0.2,8.3,1.2,12.4
	c-3.3,0.7-6.8,1.4-10,2.6c-0.9-3.8-2-7.5-3.6-10.9c-0.4-1-1.7-1.5-2.7-1.5c-0.4,0-0.7-0.1-1.1,0.1c-0.2,0.1-0.3,0.2-0.5,0.3
	c-0.9,0.5-1.6,1.6-1.5,2.7c0.3,9.7,3.8,19.7,5.9,29.1c0.9,4,7.8,3.2,7.3-1c-0.1-1-0.2-1.8-0.5-2.5c-0.7-3-1.3-6.1-1.9-9.3
	c3.4-0.4,6.9-1.4,10.2-2.3c0.9,4.7,1.7,9.8,4,13.8c1.6,2.8,5.9,1.5,6-1.6C92.8,161.6,90.1,155.4,88.6,149.8z"/>
<path class="st7" d="M109,161.3c-1.3-4.3-2.1-9-4.7-12.7c-1.6-2.3-4.9-1.4-5.1,1.4c-0.3,4.6,1.3,9,2.5,13.4c0.4,1.6,2,2.9,3.7,2.8
	c0.7,0,1.3-0.2,1.9-0.5C108.7,164.8,109.5,162.8,109,161.3z"/>
<path class="st7" d="M96.7,130c-6,0-6,9.2,0,9.2S102.7,130,96.7,130z"/>
<text transform="matrix(1 0 0 1 240.9642 248.2099)" class="st15 st16 st17 st18">TeleANT</text>
<path class="st19" d="M300.9,265.7v-4.5c0-1.6,1.7-2.6,3.1-1.8l3.9,2.2l3.9,2.3c1.4,0.8,1.4,2.8,0,3.6l-3.9,2.2l-3.9,2.2
	c-1.4,0.8-3.1-0.2-3.1-1.8V265.7z"/>
<text transform="matrix(1 0 0 1 301.2993 267.6294)" class="st20 st21"> </text>
<g>
	<path class="st15" d="M243.7,300.8h-84.2c0.5-5,1.2-9,2.3-13.3c1.5-6.2,3.6-12.3,6.6-17.9c0.1-0.2,0.2-0.4,0.3-0.5
		c5.1-9.4,11.4-18.9,21.1-23.2c9.9-4.4,21.6-3,31.3,1.6c4.6,2.2,10.1,9,14.5,18.2c3,6.3,5.5,13.9,6.9,21.7
		C243.3,291.7,243.7,295.8,243.7,300.8z"/>
	<path class="st22" d="M188.5,239.2c0,0,14.7-7.7,29.5,0l-14.7,15.9L188.5,239.2z"/>
	<path class="st23" d="M216.6,247.3c-0.1-2.7,0-3.9,0-6.6c0-1.3,0-2.6,0.1-3.9c0.1-3.9,0.2-7.8,0.1-11.7c-8.6,2-16.8,3.7-25.5,2.6
		c0,2.9,0.1,5.9,0.1,8.8l0,3.5c0,2.2,0,4.4,0.1,6.7l11.8,8.4L216.6,247.3z"/>
	<path class="st24" d="M216.7,236.8c-1.1,0.6-2.3,1.2-3.5,1.6c-6.5,2.3-15.8,2.1-21.9-1.9c0-2.9,0-5.9-0.1-8.8
		c8.7,1.1,16.9-0.6,25.5-2.6C216.9,229,216.8,232.9,216.7,236.8z"/>
	<path class="st25" d="M148.4,154.1c0.3,3.1,2.2,6,5.2,7.2c3,1.2,6.9,0.4,8.7-2.1c1.3-1.8,1.5-4.1,1.3-6.2c-0.3-2.9-1.6-5.8-4-7.6
		C153.2,140.8,148,148.5,148.4,154.1z"/>
	<path class="st25" d="M252.3,153.4c-0.3,3.1-2.2,6-5.2,7.2c-3,1.2-6.9,0.4-8.7-2.1c-1.3-1.8-1.5-4.1-1.3-6.2c0.3-2.9,1.6-5.8,4-7.6
		C247.6,140,252.8,147.7,252.3,153.4z"/>
	<path class="st23" d="M242.3,107.9c-0.7,32.9-1.4,66.4-12,97.8c-2.1,6.3-4.7,12.6-9.1,17.7c-4.4,5.1-11,9-18,9
		c-13.4,0.1-22.3-12.8-27.7-24.3c-14.9-32.4-22.4-67.8-21.9-103.1c0.8,0.3,1.6,0.6,2.5,0.9c25.9,9.2,58.9,10.3,85.2,2.2
		C241.6,108.1,242,108,242.3,107.9z"/>
	<path class="st26" d="M187.7,155.8c0.3,0.6,0.8,1.3,1.8,1.3c1.1,0,1.5-1.1,1.5-1.9c0-1.1,0.6-6.4-2.6-5.5
		C186.1,150.4,187.2,154.6,187.7,155.8z"/>
	<path class="st26" d="M222.1,154.8c-0.3,0.6-0.8,1.3-1.8,1.3c-1.1,0-1.5-1.1-1.5-1.9c0-1.1-0.6-6.4,2.6-5.5
		C223.7,149.4,222.6,153.6,222.1,154.8z"/>
	<path class="st27" d="M193.1,170.1c-4.3,3.7-2.7,10.5,2,12.7c5.9,2.8,20.3,1.9,21.2-6.5c0.5-4.3-3.4-8.1-7.6-9
		C204.3,166.3,196.7,167.1,193.1,170.1z"/>
	<path class="st28" d="M211.7,170.4c-3.4-3.2-10.1-2.1-14-0.6c-0.4,0.2-0.4,0.9,0.1,0.9c2.3-0.1,4.5-0.6,6.8-0.6
		c2.3,0,4.2,0.8,6.4,1.4C211.7,171.7,212.2,170.9,211.7,170.4z"/>
	<path class="st29" d="M213.1,204.1c-0.7,3.4-2,6.4-3.7,8.5c-0.1,0.1-0.2,0.3-0.3,0.4c-2.9,3.2-6.9,3.6-10.1,0.9
		c-0.1-0.1-0.1-0.1-0.2-0.2c-2-1.8-3.3-4.8-4-8.3c-0.4-1.9-0.6-3.9-0.7-5.9c6.5-0.9,13-1.5,19.6-1.6
		C213.7,199.9,213.5,202.1,213.1,204.1z"/>
	<path class="st30" d="M213.1,204.1c-6.1,0.4-12.2,0.8-18.4,1.3c-0.4-1.9-0.6-3.9-0.7-5.9c6.5-0.9,13-1.5,19.6-1.6
		C213.7,199.9,213.5,202.1,213.1,204.1z"/>
	<path class="st31" d="M209.3,212.6c-0.1,0.1-0.2,0.3-0.3,0.4c-2.9,3.2-6.9,3.6-10.1,0.9c-0.1-0.1-0.1-0.1-0.2-0.2
		c1.3-2.3,3-3.8,4.9-4.1C205.7,209.3,207.8,210.4,209.3,212.6z"/>
	<path class="st32" d="M201,241.3l2.2,13.8l-13-4.1C190.2,251.1,195.7,240.7,201,241.3z"/>
	<path class="st9" d="M201,241.3c-4.2-0.7-8.3-1.4-12.5-2.1c-3.9,6-5.9,8.3-9.1,11.4c5,1.2,9.6,3.8,13.6,7
		C193.2,251.3,195.9,245.1,201,241.3z"/>
	<path class="st32" d="M205.5,241.3l-2.2,13.8l13-4.1C216.3,251.1,210.8,240.7,205.5,241.3z"/>
	<path class="st9" d="M205.5,241.3c4.2-0.7,8.3-1.4,12.5-2.1c3.3,4.5,7,8.1,9.1,11.4c-5,1.2-9.6,3.8-13.6,7
		C213.3,251.3,210.6,245.1,205.5,241.3z"/>
	<path class="st33" d="M150.4,113.7c6.1,8.8,15.2,15.4,25.5,18.6c2.6,0.8,5.5,1.4,8,0.4c2.5-1,4.3-4.3,2.8-6.6
		c10.5,4.3,21.7,9.8,33.1,9.7c11.4-0.1,23.5-5.7,27.8-16.2c4.8-11.6-1.6-25.4-11.6-32.8c-7.5-5.5-17.4-9.1-26.7-10
		c-3.8-0.4-7.9-0.1-11.5,1.4c-0.9,0.4-9,5.4-7.9,6.6c-3.4-3.9-8.2-6.4-13.3-7C160,76.1,139,97.4,150.4,113.7z"/>
	<path class="st33" d="M158.6,154.8c1.1,3.1,3.1,6.5,5.2,5.6c1.8-0.7,2.4-4.2,2.6-7.1c0.9-13.1-0.6-26.9-4.1-39.3
		c-0.7-2.3-1.5-4.7-2.7-6.4c-1.3-1.7-3.1-2.5-4.5-1.4c-1.6,1.3-2,4.3-2.2,7C151.9,127.3,153.9,142.1,158.6,154.8z"/>
	<path class="st33" d="M243.5,156.8c-0.9,2.8-2.7,5.9-4.8,5.2c-1.9-0.5-2.7-3.5-3.1-6.1c-1.7-11.5-1.2-23.6,1.5-34.7
		c0.5-2.1,1.1-4.2,2.3-5.8c1.2-1.5,3-2.4,4.4-1.5c1.6,1,2.3,3.7,2.6,6.1C248.4,132.3,247.3,145.4,243.5,156.8z"/>
	<path class="st34" d="M242.5,287.2c-3.4,0.9-6.8,1.5-9.9,2c-10.8,1.8-21.6,2.6-32.6,2.4c-10.7-0.2-21.5-0.8-32-2.9
		c-2.1-0.4-4.1-0.9-6.1-1.4c1.5-6.2,3.6-12.2,6.6-17.8c0.1-0.2,0.2-0.3,0.3-0.5c2.5,0.1,4.9,0.1,7.4,0.1c9.3,0.1,18.6,0.9,28,0.7
		c8.9-0.2,17.8-0.7,26.5-2.8c1.7-0.4,3.4-0.9,5.1-1.4C238.6,272,241.1,279.4,242.5,287.2z"/>
	<path class="st35" d="M227.8,89.7c-3-1.5-6.3-2.4-9.5-3.3c-1.5-0.4-3.1-0.8-4.6-0.3c-2.2,0.7-3.3,3.2-3.1,5.5
		c0.2,2.3,1.4,4.3,2.7,6.2c5.1,7,12.4,12.4,20.6,15.2c1.7,0.6,3.7,1,5.2,0c1.8-1.2,2-3.8,1.6-6C239.3,99.7,234.4,93.1,227.8,89.7z"
		/>
</g>
<path class="st9" d="M464.3,253.3l-2.1,20.8l-12.8,2.1c-0.9,2-1.9,3.9-3,5.8l6.4,10.4l-16.2,14.7l-9.7-7.4c-2,0.9-4,1.8-6,2.4
	l-3.4,12.6h-10.4l2.3-23.3c15.3,0,29-12.4,30.5-27.8c1.5-15.3-9.6-27.8-25-27.8l2.3-23.3h10.4l0.9,12.6c1.9,0.7,3.8,1.5,5.6,2.4
	l11.2-7.4l13.2,14.7l-8.4,10.4c0.8,1.9,1.4,3.8,1.8,5.8L464.3,253.3z"/>
<path class="st8" d="M458.1,330.2v-7l-4.3-0.7c-0.2-0.7-0.5-1.3-0.8-2l2.5-3.5l-5-5l-3.5,2.5c-0.6-0.3-1.3-0.6-2-0.8l-0.7-4.3h-3.5
	h-3.5l-0.7,4.3c-0.7,0.2-1.3,0.5-2,0.8l-3.5-2.5l-5,5l2.5,3.5c-0.3,0.6-0.6,1.3-0.8,2l-4.3,0.7v7l4.3,0.7c0.2,0.7,0.5,1.3,0.8,2
	l-2.5,3.5l5,5l3.5-2.5c0.6,0.3,1.3,0.6,2,0.8l0.7,4.3h3.5h3.5l0.7-4.3c0.7-0.2,1.3-0.5,2-0.8l3.5,2.5l5-5l-2.5-3.5
	c0.3-0.6,0.6-1.3,0.8-2L458.1,330.2z M440.8,336.4c-5.3,0-9.6-4.3-9.6-9.6c0-5.3,4.3-9.6,9.6-9.6c5.3,0,9.6,4.3,9.6,9.6
	C450.5,332,446.2,336.4,440.8,336.4z"/>
<path class="st36" d="M107.4,73c1.3,0.6,2.8,0.5,4-0.2c2.2-1.3,4.3-2.7,6.1-4.4c2.3-2.3,4.1-5.2,4.3-8.4c0.2-3.2-1.5-6.7-4.5-7.9
	c-3.1-1.3-7.1,0.7-8.7,3.7c-1.4-0.7-2.8-1.4-4.4-1.8c-1.5-0.4-3.2-0.4-4.6,0.3c-1.4,0.6-2.4,1.8-3,3.2c-1.5,3.3-0.5,7.4,1.9,10.3
	C100.2,69.5,104.7,71.7,107.4,73z"/>
<g>
	<g>
		<path class="st37" d="M379.7,137.1c-0.7-4,0.2-8.2-0.3-12.2c-0.5-4.1-3.3-8.4-7.4-8.5c-3.1,0-5.7,2.4-7.1,5.1
			c-2.5,4.8-2.5,10.6-1.9,16C367.9,137.3,374.9,137.2,379.7,137.1z"/>
		<path class="st37" d="M380.4,110.8c-0.9-3.9-5-6.8-9-6.2c-4.2,0.6-7.5,5.1-6.7,9.3c0.7,4.2,5.3,7.3,9.5,6.5
			C378.3,119.6,381.3,115,380.4,110.8z"/>
		<path class="st37" d="M412.8,137.1c-0.7-4,0.2-8.2-0.3-12.2c-0.5-4.1-3.3-8.4-7.4-8.5c-3.1,0-5.7,2.4-7.1,5.1
			c-2.5,4.8-2.5,10.6-1.9,16C401,137.3,408,137.2,412.8,137.1z"/>
		<path class="st37" d="M413.5,110.8c-0.9-3.9-5-6.8-9-6.2c-4.2,0.6-7.5,5.1-6.7,9.3c0.7,4.2,5.3,7.3,9.5,6.5
			C411.4,119.6,414.4,115,413.5,110.8z"/>
		<path class="st37" d="M395.4,117.1c-0.5-3.2,0.2-6.5-0.2-9.7c-0.4-3.2-2.6-6.7-5.8-6.7c-2.4,0-4.5,1.9-5.6,4
			c-2,3.8-1.9,8.3-1.5,12.6C386.1,117.2,391.6,117.2,395.4,117.1z"/>
		<path class="st37" d="M396,96.3c-0.7-3.1-4-5.3-7.1-4.9c-3.3,0.5-5.9,4-5.3,7.4c0.6,3.3,4.2,5.8,7.5,5.1
			C394.3,103.3,396.7,99.6,396,96.3z"/>
		<path class="st37" d="M380.5,92.4c-0.6-0.2-1.2-0.4-1.8-0.4c-0.7,0-1.2,0.9-0.5,1.4c0.2,0.1,0.4,0.2,0.7,0.3
			c-0.8,0.2-1.7,0.9-2.2,1.3c-1.3,1.1-2.3,2.9-2.4,4.6c0,0.4,0.4,0.4,0.6,0.1c0.6-1.2,1.2-2.4,2.1-3.5c0.5-0.6,1.1-1,1.7-1.3
			c0,0,0.1,0,0.1-0.1c0.1,0.7,1.1,1,1.5,0.4c0.3-0.5,0.5-1.2,0.7-1.8C381.1,93.1,380.9,92.5,380.5,92.4z"/>
		<path class="st37" d="M404.4,99.5c-0.9-2.3-2.9-4.7-5.3-4.9c-0.6,0-0.9,0.7-0.4,1.1c1,0.7,2,1.2,2.8,2c0.6,0.7,1.1,1.5,1.4,2.3
			c-0.4-0.1-0.7-0.1-1.1,0c-0.4,0.1-0.3,0.6-0.1,0.8c0.6,0.5,1.4,0.7,2,1.2c0.3,0.3,0.8,0.1,1-0.2c0.5-0.5,0.8-1.2,0.9-1.9
			C405.8,99.3,404.8,99,404.4,99.5z"/>
		<path class="st37" d="M391.6,126c-1.1,0.2-2.4,0.2-3.5,0.1c-1.1-0.1-1.9-0.6-2.8-1.1c0.2,0,0.4-0.1,0.6-0.1
			c1.1-0.2,0.8-1.9-0.3-1.7c-0.8,0.2-1.6,0.3-2.5,0.4c-0.3,0-0.6,0.3-0.6,0.5c-0.3,0.9-0.7,1.9-0.8,2.8c-0.1,0.7,0.9,1,1.2,0.5
			c0.3-0.4,0.5-0.9,0.7-1.4c2.1,2,5.8,2.3,8.3,0.9C392.3,126.7,392.1,125.9,391.6,126z"/>
	</g>
</g>
<g>
	<path class="st38" d="M298.4,82.7c-6,3.9-13.4,5.8-20.5,5.2c-11.5-1-22.3-8.6-27.1-19.2c-4.9-10.6-3.7-23.9,3.1-33.4
		c6.7-9.5,18.7-15,30.1-13.8c10.3,1.1,19.9,7.4,25.1,16.4c5.2,9.1,5.8,20.7,1.6,30.2C308.1,74.1,303.7,79.2,298.4,82.7z"/>
	<path class="st37" d="M302,79c-5.8,3.5-12.8,5-19.6,4.2c-10.9-1.3-20.9-8.7-25.2-18.8c-4.3-10.1-2.8-22.4,3.9-31.1
		c6.6-8.7,18.1-13.5,29-12c9.7,1.3,18.6,7.5,23.3,16.1c4.7,8.6,4.9,19.5,0.7,28.3C311.4,71.2,307.2,75.9,302,79z"/>
	<path class="st39" d="M296.4,69.8c-3.8,2.3-8.4,3.3-12.8,2.8c-7.1-0.8-13.6-5.7-16.5-12.3c-2.8-6.6-1.8-14.7,2.5-20.4
		s11.9-8.8,19-7.9c6.4,0.9,12.2,4.9,15.2,10.5c3,5.6,3.2,12.8,0.4,18.5C302.6,64.7,299.8,67.7,296.4,69.8z"/>
	<path class="st37" d="M290.6,60.1c-1.7,1-3.7,1.5-5.7,1.2c-3.2-0.4-6.1-2.5-7.3-5.5c-1.2-2.9-0.8-6.5,1.1-9.1s5.3-3.9,8.4-3.5
		c2.8,0.4,5.4,2.2,6.8,4.7c1.4,2.5,1.4,5.7,0.2,8.2C293.3,57.8,292.1,59.1,290.6,60.1z"/>
	<path class="st38" d="M283.3,44.9c-0.1-1.5,2.4-1.9,2.7-0.4c0.2,1.4,0.5,2.9,0.7,4.3c0.1,0.2,0.1,0.4,0.2,0.7
		c5.4-4.6,10.8-9.3,16.3-13.8c5.8-4.9,11.5-10.5,17.9-14.7c1-0.6,1.9,0.7,1.2,1.5c-5.1,5.6-11.4,10.3-17.1,15.2
		c-5.4,4.6-10.8,9.2-16.1,13.8c0.2,0,0.4-0.1,0.6-0.1c1.1-0.2,2-0.7,3.1-0.3c0.7,0.3,1.3,1.1,0.8,1.9c-1.3,2.1-4.9,1.7-7.1,1.4
		c-0.6-0.1-1-0.3-1.2-0.8c-0.8-0.3-1.4-1.3-0.7-2.1C283.9,49.4,283.5,47.2,283.3,44.9z"/>
	<path class="st38" d="M320.8,23.5c2.7-0.3,5.4-0.5,8.1-0.8c-3.8,7.1-12.1,11.5-20.1,10.8C312.6,30.3,317.1,26.7,320.8,23.5z"/>
	<path class="st38" d="M319.4,22.9c0.7-2.6,1.3-5.3,2-7.9c-7.6,2.7-13.2,10.2-13.6,18.2C311.4,30,315.7,26.1,319.4,22.9z"/>
</g>
<g>
	<g>
		<path class="st0" d="M271.6,127.8c-1.3-0.2-2.7-0.2-4,0.1c-0.3-0.5-0.9-1-1.5-1.1c-0.4-0.1-0.9-0.1-1.3,0c-0.4,0.1-0.7,0.2-1,0.4
			c-0.5,0.3-0.8,0.8-0.9,1.4c-0.4,1.1,0.2,2.3,1.1,3c0.5,0.4,1.1,0.6,1.8,0.6c0.9,0,1.7-0.7,2.1-1.5c1.1-0.1,2.3-0.1,3.4-0.1
			C272.9,130.6,273.2,128,271.6,127.8z"/>
		<path class="st0" d="M283.4,126.7C283.4,126.7,283.4,126.6,283.4,126.7c0-0.7-0.6-1.1-1.1-1c-0.4,0-0.8,0.2-1.2,0.4
			c-1,0.8-2.2,1.3-3.5,1.3c-1,0-1.4,1.5-0.5,1.9c2.1,0.9,4.5,0.5,5.9-1.4C283.4,127.6,283.5,127.1,283.4,126.7z"/>
		<path class="st0" d="M293.4,116.5c-0.4-0.4-1.1-0.3-1.5,0c-0.8,0.7-0.7,1.9-1.1,2.8c-0.4,0.9-1.2,1.8-2,2.4
			c-0.8,0.6-0.3,2,0.8,1.6c1.5-0.5,2.5-1.2,3.4-2.5C293.8,119.7,294.5,117.6,293.4,116.5z"/>
		<path class="st0" d="M294.2,110.6c-0.1-0.7-0.1-1.4,0-2c0.1-0.7,0.2-1.5,0.7-2c0.8-0.8,2-0.6,2.3,0.6c0.1,0.6-0.1,1.2-0.2,1.8
			c-0.1,0.6-0.2,1.1-0.3,1.7C296.4,111.9,294.5,112,294.2,110.6z"/>
		<path class="st0" d="M296,101.3c0.1-0.9,0.3-1.9,0.6-2.8c0.5-1.5,2.9-0.9,2.7,0.7c-0.1,0.9-0.4,1.9-0.8,2.7
			C297.9,103.3,295.9,102.8,296,101.3z"/>
		<path class="st0" d="M296.7,88.5c0.4-0.7,1.1-1.1,1.8-1.3c0.1,0,0.1-0.1,0.2-0.1c0.2,0,0.4-0.1,0.6-0.1c0.3,0,0.7,0,1,0.1
			c0.7,0.1,1.4,0.7,1.8,1.3c0.3,0.5,0.3,1.1,0.2,1.6c0,1-0.6,2-1.5,2.6c-0.1,0.1-0.2,0.1-0.3,0.1c-0.1,0.7-0.2,1.4-0.5,1.9
			c-0.4,0.9-1.8,1.1-2.2,0c-0.3-0.7-0.4-1.5-0.3-2.2c-0.1-0.1-0.2-0.2-0.3-0.2C296.1,91.4,296.1,89.7,296.7,88.5z"/>
	</g>
</g>
<g>
	<path class="st0" d="M324.2,69.1c-0.5-0.5-1.1-0.7-1.7-0.8c-0.3,0-0.6,0-0.8,0c-0.3,0.1-0.6,0.2-0.8,0.4c0,0-0.1,0.1-0.1,0.1
		c-0.6,0.3-1,0.7-1.3,1.2c-0.7,1.1-0.5,2.3,0.3,3.3c0.6,0.8,1.9,1.2,2.9,1c0.1,0,0.2,0,0.2-0.1c0.8,0.8,1.6,1.6,2.4,2.4
		c1,1,2,2.1,3.2,2.8c1.1,0.6,2.7-0.5,2-1.8c-0.7-1.2-1.9-2.1-2.9-3.1c-0.8-0.8-1.7-1.6-2.5-2.3c0-0.1,0.1-0.1,0.1-0.2
		C325.2,71.2,325,69.9,324.2,69.1z"/>
	<path class="st0" d="M339.4,85.9c-1.5-1.3-3.1-2.5-4.7-3.6c-1.1-0.8-2.5,0.9-1.5,1.8c1.5,1.3,3,2.7,4.5,3.8
		C338.9,88.8,340.5,86.9,339.4,85.9z"/>
	<path class="st0" d="M350,95.6c-2.1-1.4-3.7-3.1-5.5-4.8c-1-0.9-2.7,0.1-2,1.4c1.4,2.4,3.7,4.3,6,5.9C350,99.1,351.5,96.7,350,95.6
		z"/>
	<path class="st0" d="M359,102.4c-0.7-0.2-1.5-0.1-2.1,0.3c-0.3-0.2-0.5-0.4-0.8-0.6c-0.7-0.5-1.4-1.1-2.2-1.5
		c-1.2-0.6-2.5,0.8-1.6,1.8c0.8,0.8,1.7,1.7,2.7,2.5c0,0.1,0,0.2-0.1,0.3c-0.1,0.8,0.5,1.7,1.1,2.1c1.3,0.9,2.9,0.5,3.8-0.7
		C360.9,105.3,360.6,102.9,359,102.4z"/>
</g>
<g>
	<path class="st0" d="M164.6,52c-1.1-0.1-2.3-0.1-3.4,0c-0.4-1.7-2.4-2.7-4-2.2c-1.9,0.6-2.6,2.8-1.9,4.6c0.7,1.7,3,2.1,4.5,1.1
		c0.2-0.2,0.4-0.4,0.6-0.6c1.4,0.2,2.8,0.3,4.2,0.1C166.6,54.7,166.6,52.2,164.6,52z"/>
	<path class="st0" d="M178.6,52.4c-1.2-0.8-2.8-0.2-4.1,0c-1.1,0.2-1.1,2,0,2.1c1.3,0.2,2.9,0.8,4.1,0
		C179.4,54,179.4,52.9,178.6,52.4z"/>
	<path class="st0" d="M190.2,52.4c-0.9-0.3-2-0.1-2.9-0.1c-1.5,0.1-1.5,2.2,0,2.3c0.9,0,2,0.2,2.9-0.1
		C191.2,54.1,191.2,52.8,190.2,52.4z"/>
	<path class="st0" d="M202.5,50.8c-0.9-0.1-1.7,0-2.6,0.1c-1.6,0.1-1.6,2.4,0,2.5c0.9,0.1,1.7,0.1,2.6,0.1
		C204.2,53.3,204.2,50.9,202.5,50.8z"/>
	<path class="st0" d="M220.1,49.5c-1.4-0.3-2.8-0.2-4.2-0.1c-1.7,0.1-1.7,2.5,0,2.6c1.4,0.1,2.8,0.2,4.2-0.1
		C221.2,51.6,221.2,49.8,220.1,49.5z"/>
	<path class="st0" d="M238.3,48.8c-0.5-1.1-1.6-1.9-2.7-1.8c-0.2,0-0.4,0-0.5,0.1c-0.7,0.2-1.2,0.7-1.5,1.3
		c-1.1,0.2-2.1,0.4-3.2,0.7c-1.1,0.3-0.9,2.1,0.3,2c0.9-0.1,1.9-0.2,2.8-0.3c0,0.1,0.1,0.2,0.1,0.3c0.2,0.5,0.7,0.7,1.1,0.8
		c0.6,0.3,1.3,0.4,1.9,0.2C237.9,51.8,238.8,50.2,238.3,48.8z"/>
</g>
<g>
	<path class="st0" d="M424.2,129.6c1.4-5,8.8-3.3,8.5,1.3c1.3,0.2,2.5,0.6,3.7,1c2.3,0.8,1.3,4.3-1.1,3.7c-1.5-0.4-2.9-0.8-4.2-1.4
		C428.3,136.4,422.9,134,424.2,129.6z"/>
	<path class="st0" d="M443.2,136.9c-0.8-1.6,1.2-3.2,2.5-1.9c0.8,0.8,1.6,0.9,2.5,1.2c0.8,0.2,1.3,0.9,1.3,1.7
		c0,1.1-0.8,1.6-1.8,1.8C445.9,140,444,138.5,443.2,136.9z"/>
	<path class="st0" d="M453,145.1c-0.6-0.9-0.9-1.8-1.3-2.8c-0.6-1.7,1.9-3.1,3.1-1.7c0.7,0.8,1.3,1.6,1.8,2.5c0.5,1,0.2,2.2-0.8,2.8
		C454.8,146.4,453.6,146,453,145.1z"/>
	<path class="st0" d="M452.1,159c-0.2-1.1,0-2.1,0.2-3.1c0.2-1,0.7-1.8,0.9-2.8c0.4-1.6,2.9-1.2,2.9,0.4c0,1.8,0.6,3.7-0.2,5.5
		c-0.3,0.8-1,1.4-1.9,1.4C453.2,160.4,452.2,159.8,452.1,159z"/>
	<path class="st0" d="M450,167.9c0.1-0.5,0.3-0.9,0.5-1.3c0.1-0.2,0.2-0.4,0.4-0.6c0.1-0.1,0.3-0.2,0.4-0.3c0,0,0,0,0,0
		c0.7-1.1,2.5-0.6,2.5,0.7c0,0,0,0,0,0c0.2,0.4,0.3,0.7,0.2,1.1c-0.1,0.5-0.1,0.9-0.3,1.4c-0.4,1-1.3,1.6-2.3,1.3
		C450.3,170,449.8,169,450,167.9z"/>
	<path class="st0" d="M447.7,182.2c-0.5-1.9,0.8-3.5,1.6-5.1c0.7-1.4,3.2-0.7,3,0.9c-0.2,1.8,0.1,3.8-1.4,5.1
		C449.9,184.2,448.1,183.7,447.7,182.2z"/>
	<path class="st0" d="M440.9,193.7c0.6-2.1,2.5-3.5,4.6-3.6c0.1-0.1,0.2-0.3,0.2-0.4c0.2-0.4,0.5-0.8,0.8-1.1c0-0.1,0.1-0.1,0.1-0.2
		c0.5-1,2.2-0.5,2.1,0.6c0,0.1,0,0.2,0,0.2c0.1,0.3,0.1,0.7,0.1,1.1c0.1,0.2,0,0.3-0.1,0.2c0,0.2,0.1,0.4,0.1,0.7
		c1.4,1.2,2.2,3.2,1.6,5.2c-0.7,2.6-3.5,4.1-6.1,3.4C441.7,199.1,440.1,196.3,440.9,193.7z"/>
</g>
<g>
	<path class="st0" d="M70,196.1c-4.5-0.4-5.3,7.2-1,8c0,0.3-0.1,0.6-0.1,1c-0.1,1.1-0.4,2.5-0.2,3.6c0.2,1,1.4,1.1,1.8,0.1
		c0.4-1,0.3-2.1,0.4-3.1c0-0.6,0.1-1.2,0.1-1.8C74.1,202.6,74,196.4,70,196.1z"/>
	<path class="st0" d="M70.5,213.7c-0.5-1.2-1.9-0.5-1.9,0.7c0.1,1.1,0.2,2.2,0.2,3.3c0,1-0.2,2-0.2,3c0,1.3,1.8,1.2,2.1,0.2
		C71.6,218.7,71.3,215.7,70.5,213.7z"/>
	<path class="st0" d="M71.4,227.3c-0.3-1.2-1.9-1.2-2,0.1c-0.1,0.9,0,1.7,0,2.6c0.1,0.9,0,1.7,0.4,2.5c0.4,0.9,1.7,0.9,2-0.1
		C72.1,230.8,71.8,228.8,71.4,227.3z"/>
	<path class="st0" d="M73.2,243.7c-0.1-1.8-0.6-3.7-1.2-5.4c-0.3-1-1.8-0.7-1.8,0.4c0,1.8,0.1,3.8,0.6,5.5
		C71.2,245.9,73.3,245.5,73.2,243.7z"/>
	<path class="st0" d="M77.1,252.1c-1-0.8-1.9-2-2.5-3.2c-0.5-1.1-2-0.6-1.9,0.7c0.3,2.1,1.4,3.6,2.9,4.8
		C77,255.4,78.4,253.1,77.1,252.1z"/>
	<path class="st0" d="M83.4,256.8c-0.9-0.7-2-1.3-3-1.7c-0.9-0.3-2.1,1-1.2,1.9c0.9,0.9,1.9,1.7,3.1,2.2
		C83.5,259.9,84.4,257.7,83.4,256.8z"/>
	<path class="st0" d="M95.3,262c-0.3-1-1.3-1.1-2.1-1.2c-1-0.2-2-0.4-3-0.4c-1.1,0-1.4,1.6-0.4,2.1c0.8,0.4,1.7,0.7,2.5,0.9
		c0.9,0.2,1.9,0.8,2.7-0.1C95.4,262.9,95.4,262.5,95.3,262z"/>
	<path class="st0" d="M106.2,264.3c-0.1-0.8-0.8-1.2-1.5-1.1c-0.6,0-1.2,0.1-1.7,0c-0.5-0.1-1.1,0-1.5-0.1c-0.8-0.3-1.4,0.9-0.7,1.5
		c0.3,0.2,0.5,0.5,0.8,0.8c0.3,0.3,0.8,0.4,1.2,0.5c0.8,0.2,1.6,0.3,2.5,0.1C105.8,265.8,106.3,265,106.2,264.3z"/>
	<path class="st0" d="M116.6,264.1c-1.3-0.2-2.5-0.2-3.8,0c-1.1,0.1-1.2,2.1-0.2,2.4c1.2,0.4,2.4,0.6,3.7,0.6
		C118,267,118.3,264.4,116.6,264.1z"/>
	<path class="st0" d="M129.7,266.6c-1.7-0.6-3.6-0.4-5.3-0.2c-1.1,0.1-1.2,2.1-0.2,2.4c1.7,0.5,3.5,1,5.2,0.7
		C130.8,269.3,131,267,129.7,266.6z"/>
	<path class="st0" d="M142.4,268.6c-1.6-0.9-3.8-0.6-5.5-0.4c-1.1,0.1-1.2,2.1-0.2,2.4c1.7,0.4,3.8,1.2,5.5,0.5
		C143,270.7,143.2,269.1,142.4,268.6z"/>
	<path class="st0" d="M155.1,268.3c-1.2-0.1-2.3,0.5-2.9,1.5c-0.3,0-0.6,0-0.9,0c-0.8,0-1.6,0.2-2.4,0.2c-1.2,0.1-1.4,1.8-0.2,2.1
		c0.7,0.2,1.3,0.4,2,0.5c0.3,0.1,0.6,0.1,1,0.2c0.3,1.5,1.4,2.6,2.9,2.7c1.8,0.1,3.4-1.4,3.6-3.4S156.9,268.4,155.1,268.3z"/>
</g>
<g>
	<path class="st0" d="M67.9,60.4c-1.1-4.3-7.3-3-7.2,0.9c-1.1,0.1-2.1,0.4-3.1,0.7c-2,0.6-1.2,3.6,0.8,3.1c1.2-0.3,2.5-0.6,3.6-1.1
		C64.3,66,68.8,64.1,67.9,60.4z"/>
	<path class="st0" d="M51.7,66c0.7-1.3-1-2.7-2.1-1.6c-0.7,0.7-1.3,0.7-2.1,0.9c-0.6,0.1-1.1,0.8-1.1,1.4c0,0.9,0.7,1.4,1.5,1.5
		C49.4,68.5,51,67.4,51.7,66z"/>
	<path class="st0" d="M43.2,72.6c0.5-0.7,0.8-1.5,1.2-2.3c0.6-1.4-1.6-2.6-2.5-1.5c-0.6,0.7-1.1,1.3-1.6,2.1
		c-0.5,0.8-0.2,1.9,0.6,2.3C41.7,73.7,42.7,73.4,43.2,72.6z"/>
	<path class="st0" d="M43.6,84.3c0.2-0.9,0-1.7-0.1-2.6c-0.1-0.8-0.5-1.5-0.7-2.3c-0.3-1.4-2.4-1.1-2.4,0.3c-0.1,1.5-0.6,3.1,0,4.7
		c0.3,0.7,0.8,1.2,1.6,1.3C42.7,85.5,43.5,85.1,43.6,84.3z"/>
	<path class="st0" d="M45.1,92c-0.1-0.4-0.2-0.8-0.4-1.1c-0.1-0.2-0.2-0.4-0.3-0.5c-0.1-0.1-0.2-0.2-0.3-0.2c0,0,0,0,0,0
		c-0.5-1-2.1-0.6-2.1,0.5c0,0,0,0,0,0c-0.2,0.3-0.2,0.6-0.2,0.9c0,0.4,0.1,0.8,0.2,1.2c0.3,0.8,1.1,1.4,1.9,1.2
		C44.9,93.7,45.3,92.8,45.1,92z"/>
	<path class="st0" d="M50.5,103.5c-0.3-1.8-1.9-3.1-3.6-3.3c-0.1-0.1-0.1-0.2-0.2-0.3c-0.1-0.4-0.3-0.7-0.6-1c0-0.1,0-0.1-0.1-0.2
		c-0.3-0.9-1.8-0.6-1.8,0.4c0,0.1,0,0.1,0,0.2c-0.1,0.3-0.1,0.6-0.2,0.9c-0.1,0.1,0,0.2,0,0.2c0,0.2-0.1,0.4-0.1,0.5
		c-1.3,0.9-2,2.6-1.7,4.2c0.4,2.2,2.7,3.7,4.9,3.3C49.4,107.9,50.9,105.7,50.5,103.5z"/>
</g>
<path class="st39" d="M88,230.7c2.6-0.3,5.1-1.1,7.5-2.3c1.8-0.9,3.6-2.1,4.8-3.8c1.2-1.7,1.7-3.9,1-5.8c-0.6-1.7-2.2-2.9-4-3.2
	c-1.8-0.3-3.7,0.5-4.8,1.9c-0.5-1.3-1.4-2.8-2.4-3.7c-1-0.9-2.5-1.4-3.8-1c-1.5,0.4-2.6,1.9-3,3.4c-0.4,1.6-0.1,3.2,0.3,4.7
	C84.3,224,86.4,227.9,88,230.7z"/>
<path class="st39" d="M438,170.3c-1.5-0.2-2.9-0.7-4.2-1.4c-1-0.5-2-1.3-2.6-2.2c-0.6-1-0.9-2.2-0.5-3.3c0.4-0.9,1.3-1.6,2.3-1.8
	c1-0.1,2.1,0.3,2.7,1.1c0.3-0.7,0.8-1.6,1.4-2.1c0.6-0.5,1.4-0.8,2.2-0.5c0.9,0.3,1.5,1.1,1.6,2c0.2,0.9,0,1.8-0.2,2.7
	C440.2,166.5,438.9,168.7,438,170.3z"/>
<g>
	<path class="st15" d="M73.4,292.6c-0.9,7.5-5.1,14.6-11.4,18.9c-1.5,1-3.1,2-3.8,3.6c-0.8,2.1,0.4,4.5,2.2,5.8
		c7.1,5.1,15.5-0.5,20.5-6.5c0.9-1.1,8.8-15.5,6.7-15.9C83.6,297.8,77.1,294.1,73.4,292.6z"/>
	<path class="st9" d="M98.7,288c-0.1,5-1.4,10.5-5.9,14.1c0,0-7.1-1.9-16.5-3.8c-14.3-3-33.9-6.2-41.9-3.1l5.1-22.5l4.8-21
		c0,0,13.8,12.8,37.1,20.8c4.8,1.7,10,3.1,15.6,4.2C97.2,276.7,98.9,281.9,98.7,288z"/>
	<path class="st29" d="M24.9,292.5c0,2.3,0.2,4.7,1.7,6.7c1.4,2,4.5,3.6,7.7,3.2c3.9-0.5,6.1-3.5,7.7-6.1
		c6.4-10.3,11.2-21.2,11.8-32.4c0.3-4.9,1.6-16.3-4.2-19.6c-7.8-4.4-14.3,7.8-16.1,11.8C27.9,267.9,24.7,280.1,24.9,292.5z"/>
	<path class="st26" d="M51.8,264.7c-0.1,1.3-0.3,2.6-0.5,3.9c0,0,0,0,0,0c-1,5.6-2.8,11-5.3,16.3c-1.6,3.3-3.4,6.6-5.3,9.8
		c-1.5,2.4-3.4,5.1-6.7,5.4c-2.7,0.2-5.2-1.4-6.3-3.3s-1.2-4.2-1.1-6.4c0.3-11.7,3.4-23.1,8.5-34c1.7-3.7,7.5-14.9,14-10.4
		C53.8,249.4,52.2,260.1,51.8,264.7z"/>
	<path class="st32" d="M92.8,302.1c0,0-7.1-1.9-16.4-3.8c4-7.9,5.9-17,5.2-25.8c4.8,1.7,10,3.1,15.6,4.2
		C97.2,276.7,102.7,294.1,92.8,302.1z"/>
	<path class="st0" d="M51.3,268.6C51.3,268.6,51.3,268.6,51.3,268.6c-1,5.6-2.8,11-5.3,16.3c-3.5-2.4-7-4.6-10.5-7
		c-2.1-4.1-2-7.3,2.8-10.8c4.3,0.1,8.7,0.6,13,1.2C51.3,268.4,51.3,268.5,51.3,268.6z"/>
	<path class="st40" d="M20.3,251.2c1.8,0.3,3.5,2,4.9,3.1c1.6,1.1,3.2,2.2,4.6,3.6c0.5,0.4-0.1,1.1-0.6,0.8
		c-1.9-0.9-3.6-2.2-5.4-3.4c-1.4-0.9-3.3-1.8-4.1-3.3C19.5,251.6,19.9,251.2,20.3,251.2z"/>
	<path class="st40" d="M16.1,263.3c2.9,0.4,6,1.4,8.8,2.4c0.8,0.3,0.5,1.5-0.4,1.3c-2.8-0.5-6-1.1-8.6-2.2
		C15.2,264.5,15.2,263.1,16.1,263.3z"/>
	<path class="st40" d="M14.6,276.9c2.5-0.6,5.1-1.5,7.8-1.7c0.6-0.1,0.9,1,0.3,1.3c-2.4,1.1-5.1,1.6-7.6,2.3
		C14,279.1,13.5,277.2,14.6,276.9z"/>
	<path class="st40" d="M14.6,292.3c0.7-0.9,1.7-1.6,2.6-2.3c1-0.8,2.1-1.6,3.2-2.4c0.8-0.5,1.7,0.7,1,1.3c-0.9,0.8-1.8,1.7-2.8,2.4
		c-0.9,0.7-1.8,1.7-2.8,2.2C15.2,293.8,14.1,293.1,14.6,292.3z"/>
</g>
<g>
	<path class="st0" d="M391.7,70.6c4.4-0.1,4.6-6.5,0.7-7.3c0.1-1.1,0.1-2.1,0-3.2c-0.1-2.1-3.2-2-3.2,0.1c0,1.3,0,2.5,0.2,3.8
		C387,65.8,387.8,70.7,391.7,70.6z"/>
	<path class="st0" d="M389.8,53.6c1.1,1,2.9-0.3,2.1-1.7c-0.5-0.8-0.4-1.5-0.4-2.3c0-0.7-0.5-1.3-1.1-1.4c-0.9-0.2-1.5,0.3-1.8,1.1
		C387.9,50.8,388.7,52.6,389.8,53.6z"/>
	<path class="st0" d="M385.3,43.9c0.6,0.6,1.3,1.1,2,1.7c1.3,0.9,2.9-0.9,2-2.1c-0.5-0.7-1-1.4-1.7-2c-0.7-0.6-1.8-0.6-2.4,0.1
		C384.6,42.2,384.6,43.2,385.3,43.9z"/>
	<path class="st0" d="M373.8,41.6c0.8,0.4,1.7,0.4,2.6,0.5c0.8,0.1,1.6-0.1,2.4-0.1c1.4,0,1.6-2.1,0.3-2.4c-1.5-0.4-2.9-1.3-4.5-1
		c-0.7,0.1-1.4,0.5-1.6,1.3C372.8,40.4,373.1,41.3,373.8,41.6z"/>
	<path class="st0" d="M366,41.4c0.4,0,0.8,0,1.2-0.1c0.2,0,0.4-0.1,0.6-0.2c0.1-0.1,0.2-0.2,0.3-0.2c0,0,0,0,0,0
		c1.1-0.3,1-1.9,0-2.2c0,0,0,0,0,0c-0.2-0.2-0.5-0.4-0.9-0.4c-0.4-0.1-0.8-0.1-1.2,0c-0.9,0.1-1.6,0.7-1.6,1.6
		C364.4,40.8,365.1,41.4,366,41.4z"/>
	<path class="st0" d="M353.9,40.2c1.4,0.8,3,0.1,4.5-0.2c1.3-0.2,1.3-2.5-0.1-2.7c-1.5-0.2-3.1-0.9-4.5,0
		C352.8,38,352.8,39.6,353.9,40.2z"/>
	<path class="st0" d="M343.1,43.4c1.8,0,3.4-1.3,3.9-3c0.1,0,0.3-0.1,0.4-0.1c0.4-0.1,0.8-0.2,1.1-0.4c0.1,0,0.1,0,0.2,0
		c0.9-0.2,0.9-1.7,0-1.8c-0.1,0-0.1,0-0.2,0c-0.3-0.1-0.6-0.2-0.9-0.3c-0.1-0.1-0.2-0.1-0.2,0c-0.2-0.1-0.3-0.1-0.5-0.2
		c-0.7-1.4-2.2-2.5-3.9-2.4c-2.3,0-4.1,2-4.1,4.3C338.9,41.5,340.8,43.4,343.1,43.4z"/>
</g>
<g>
	<path class="st39" d="M349.6,74.5c-4.8,0-5-3.9-5.2-8l0-0.7c0-0.6-0.1-1.3-0.2-1.9c-0.1-0.7-0.2-1.4-0.2-2.2
		c-0.1-1.3,0.1-3.2,1.2-4.5c1.2-1.5,3.1-1.6,4.4-1.7l14.1-1c0.2,0,0.5,0,0.7,0c0.4,0,1.8,0,2.7,1c0.9,1,1,2.4,1,3.7
		c0,0.8,0,1.5,0.1,2.3c0,1.5,0.1,3,0.2,4.5c0,0.5,0.1,0.9,0.1,1.4c0.2,2,0.4,4.1-1.9,5.5c-1.2,0.7-2.6,0.7-3.8,0.7l-0.8,0
		c-0.4,0-0.8,0-1.2,0c-3.4,0.4-6.9,0.6-10.4,0.8C350,74.4,349.8,74.5,349.6,74.5z M364.2,56.5c-0.2,0-0.4,0-0.6,0l-14.1,1
		c-1.2,0.1-2.3,0.2-3,1c-0.5,0.6-0.8,1.7-0.7,3.1c0,0.7,0.1,1.3,0.2,2c0.1,0.7,0.2,1.4,0.2,2.1l0,0.7c0.2,4.8,0.6,6.3,3.6,6.1
		c3.4-0.2,6.9-0.5,10.3-0.8c0.5-0.1,1-0.1,1.4-0.1l0.8,0c1,0,2.1,0,2.9-0.5c1.1-0.6,1.2-1.4,0.9-3.5c0-0.5-0.1-1-0.1-1.5
		c-0.1-1.5-0.1-3.1-0.2-4.6c0-0.7,0-1.5-0.1-2.2c0-0.9-0.1-1.9-0.5-2.4C365.2,56.6,364.9,56.5,364.2,56.5z"/>
	<path class="st39" d="M361.3,64.4c-2.2-1.9-5.3-3.2-8.1-4c0,2.7,0.3,5.4,0.9,8C356.4,67.2,359,65.6,361.3,64.4z"/>
</g>
<g>
	<path class="st39" d="M310.1,130.9c-1.5,0-2.8-0.5-3.9-1.3c-1.9-1.4-2.7-4.1-1.9-6.3c0.7-2.2,3-3.9,5.3-3.9c0,0,0,0,0,0
		c1.5,0,3.1,0.6,4.3,1.6c1.3,1,2.1,2.3,2.3,3.7c0.2,1.6-0.4,3.3-1.5,4.5c-1.1,1.1-2.6,1.7-4.2,1.8
		C310.4,130.9,310.3,130.9,310.1,130.9z M309.7,121.3c-1.6,0-3.1,1.1-3.5,2.6c-0.5,1.5,0.1,3.2,1.3,4.1c0.8,0.6,1.9,0.9,3,0.9
		c1.1-0.1,2.2-0.5,2.9-1.2c0.7-0.7,1.1-1.8,1-2.7c-0.1-0.9-0.7-1.7-1.6-2.4C311.8,121.7,310.7,121.3,309.7,121.3z"/>
	<path class="st39" d="M320.6,117.6c-1.5,0-2.8-0.5-3.9-1.3c-1.9-1.4-2.7-4.1-1.9-6.3c0.7-2.2,3-3.9,5.3-3.9c1.6,0,3.1,0.6,4.3,1.6
		c1.3,1,2.1,2.3,2.3,3.7c0.2,1.6-0.4,3.3-1.5,4.5c-1.1,1.1-2.6,1.7-4.2,1.8C320.8,117.6,320.7,117.6,320.6,117.6z M320.1,108.1
		c-1.6,0-3.1,1.1-3.5,2.6c-0.5,1.5,0,3.2,1.3,4.1c0.8,0.6,1.9,0.9,3,0.9c1.1-0.1,2.2-0.5,2.9-1.2c0.7-0.7,1.1-1.8,1-2.7
		c-0.1-0.9-0.7-1.7-1.6-2.4C322.2,108.5,321.1,108.1,320.1,108.1z"/>
	<path class="st39" d="M327.6,130.4c-1.5,0-2.8-0.5-3.9-1.3c-1.9-1.4-2.7-4.1-1.9-6.3c0.7-2.2,3-3.9,5.3-3.9c0,0,0,0,0,0
		c1.5,0,3.1,0.6,4.3,1.6c1.3,1,2.1,2.3,2.3,3.7c0.2,1.6-0.4,3.3-1.5,4.5c-1.1,1.1-2.6,1.7-4.2,1.8
		C327.9,130.4,327.7,130.4,327.6,130.4z M327.2,120.8c-1.6,0-3.1,1.1-3.5,2.6c-0.5,1.5,0,3.2,1.3,4.1c0.8,0.6,1.9,0.9,3,0.9
		c1.1-0.1,2.2-0.5,2.9-1.2c0.7-0.7,1.1-1.8,1-2.7c-0.1-0.9-0.7-1.7-1.6-2.4C329.2,121.2,328.2,120.8,327.2,120.8z"/>
	<path class="st39" d="M312.8,121.9c-0.2,0-0.5-0.1-0.6-0.2c-0.4-0.4-0.5-1-0.1-1.4l4.7-5.6c0.4-0.4,1-0.5,1.4-0.1
		c0.4,0.4,0.5,1,0.1,1.4l-4.7,5.6C313.4,121.8,313.1,121.9,312.8,121.9z"/>
	<path class="st39" d="M315.1,126c-0.5,0-1-0.4-1-1c0-0.6,0.4-1,1-1l7.5-0.1c0,0,0,0,0,0c0.5,0,1,0.4,1,1c0,0.6-0.4,1-1,1L315.1,126
		C315.2,126,315.1,126,315.1,126z"/>
</g>
<g>
	<path class="st37" d="M451,46.3c-0.2-1-0.2-2-0.1-3c0-0.4-0.4-0.8-0.8-0.8c-1.2,0-2.3,0-3.5,0c-0.8,0-1.6-0.1-2,0.6
		c-0.1,0.1-0.1,0.2,0,0.3c0.4,0.7,1.2,0.6,2,0.6c0.5,0,1,0,1.5,0c-1.9,2.3-3.6,4.8-4.9,7.6c-0.6,1.3-1.1,4.1-2.9,2.7
		c-1.5-1.3-3.1-2.5-4.6-3.8c-0.3-0.2-0.7-0.3-1,0c-5.8,6.2-11.5,12.8-16.2,20c-0.4,0.6,0.5,1.1,1,0.6c5.1-6.6,10-13.1,15.8-19.1
		c1.8,1.5,3.6,3,5.4,4.4c0.7,0.6,1.4,0.7,2.1,0c0.3-0.3,0.5-1.1,0.7-1.5c0.5-1.3,1.1-2.6,1.7-3.8c1.1-2.2,2.5-4.2,4.1-6.1
		c0,0.4,0,0.8,0.1,1.2c0.1,0.8,0.1,1.8,0.8,2.3c0.3,0.3,0.7,0.2,0.9-0.2C451.4,47.5,451.1,46.9,451,46.3z"/>
	<path class="st37" d="M431.6,86.1c-0.8-4.5-1.6-9-2.4-13.5c-3.1,0.6-6.5,1.6-9.6,2.2c1.1,4,2.3,8,3.4,12
		C425.6,86.3,429.1,86.5,431.6,86.1z"/>
	<path class="st37" d="M446.3,84.4c-1-7.2-2.3-14.7-3.2-21.9c-2.9,0.9-6.2,1.9-9.2,2.4c1.7,6.8,3,13.7,4.1,20.6
		C440.6,85,443.7,84.8,446.3,84.4z"/>
	<path class="st37" d="M457.1,82.6c-0.3-8.6-1.4-17.8-3-26.2c-2.3,0.5-5.1,1-7.4,1.5c1.4,8.4,2.8,16.7,4.2,25.1
		C452.5,82.8,455.5,82.9,457.1,82.6z"/>
</g>
</svg>
